<?xml version="1.0" encoding="UTF-8"?>
<svg width="110px" height="128px" viewBox="0 0 110 128" version="1.1" xmlns="http://www.w3.org/2000/svg" xmlns:xlink="http://www.w3.org/1999/xlink">
    <!-- Generator: Sketch 45.2 (43514) - http://www.bohemiancoding.com/sketch -->
    <title>bg</title>
    <desc>Created with Sketch.</desc>
    <defs>
        <rect id="path-1" x="0" y="0" width="110" height="128"></rect>
        <filter x="-11.8%" y="-8.6%" width="123.6%" height="120.3%" filterUnits="objectBoundingBox" id="filter-3">
            <feOffset dx="0" dy="2" in="SourceAlpha" result="shadowOffsetOuter1"></feOffset>
            <feGaussianBlur stdDeviation="4" in="shadowOffsetOuter1" result="shadowBlurOuter1"></feGaussianBlur>
            <feColorMatrix values="0 0 0 0 0   0 0 0 0 0   0 0 0 0 0  0 0 0 0.15 0" type="matrix" in="shadowBlurOuter1"></feColorMatrix>
        </filter>
        <path d="M31,20.8297626 C32.1692606,20.4174955 33,19.3022823 33,17.991212 L33,10.5 C33,4.69973509 28.2947648,0 22.4905629,0 L2.00228533,0 C0.899784928,0 0,0.892995579 0,1.99456145 L0,18.5027193 L0,35 L31,35 L31,20.8297626 Z" id="path-4"></path>
        <path d="M30,20.9999997 C31.6662136,20.9992686 33,19.6524686 33,17.991212 L33,10.5 C33,4.69973509 28.2947648,0 22.4905629,0 L10.5094371,0 C4.69304953,0 0,4.70101013 0,10.5 L0,17.991212 C0,19.6539558 1.34301994,20.9992653 3,20.9999997 L3,35 L30,35 L30,20.9999997 Z" id="path-6"></path>
        <path d="M34,33.2306404 C38.2255414,30.350687 41,25.4993482 41,20 L34,20 L34,33.2306404 Z" id="path-7"></path>
        <filter x="-35.7%" y="-18.9%" width="171.4%" height="137.8%" filterUnits="objectBoundingBox" id="filter-8">
            <feOffset dx="0" dy="-5" in="SourceAlpha" result="shadowOffsetInner1"></feOffset>
            <feComposite in="shadowOffsetInner1" in2="SourceAlpha" operator="arithmetic" k2="-1" k3="1" result="shadowInnerInner1"></feComposite>
            <feColorMatrix values="0 0 0 0 0.22745098   0 0 0 0 0.705882353   0 0 0 0 0.901960784  0 0 0 0.198624321 0" type="matrix" in="shadowInnerInner1"></feColorMatrix>
        </filter>
        <path d="M0.0233902048,45 C0.00785473686,45.3313828 0,45.6647741 0,46 C0,57.5979797 9.40202025,67 21,67 C32.5979797,67 42,57.5979797 42,46 C42,45.6647741 41.9921453,45.3313828 41.9766098,45 L0.0233902048,45 Z" id="path-9"></path>
        <filter x="-6.0%" y="-11.4%" width="111.9%" height="122.7%" filterUnits="objectBoundingBox" id="filter-10">
            <feOffset dx="0" dy="-5" in="SourceAlpha" result="shadowOffsetInner1"></feOffset>
            <feComposite in="shadowOffsetInner1" in2="SourceAlpha" operator="arithmetic" k2="-1" k3="1" result="shadowInnerInner1"></feComposite>
            <feColorMatrix values="0 0 0 0 0.22745098   0 0 0 0 0.705882353   0 0 0 0 0.901960784  0 0 0 0.198624321 0" type="matrix" in="shadowInnerInner1"></feColorMatrix>
        </filter>
        <path d="M0,41.5 C0,40.6715729 0.676731136,40 1.49480224,40 L40.5051978,40 C41.3307542,40 42,40.6657972 42,41.5 L42,43 L0,43 L0,41.5 Z" id="path-11"></path>
        <filter x="-2.4%" y="-33.3%" width="104.8%" height="166.7%" filterUnits="objectBoundingBox" id="filter-12">
            <feOffset dx="0" dy="-2" in="SourceAlpha" result="shadowOffsetInner1"></feOffset>
            <feComposite in="shadowOffsetInner1" in2="SourceAlpha" operator="arithmetic" k2="-1" k3="1" result="shadowInnerInner1"></feComposite>
            <feColorMatrix values="0 0 0 0 0.185152548   0 0 0 0 0.671513255   0 0 0 0 0.870110544  0 0 0 0.369112319 0" type="matrix" in="shadowInnerInner1"></feColorMatrix>
        </filter>
    </defs>
    <g id="Page-1" stroke="none" stroke-width="1" fill="none" fill-rule="evenodd">
        <g id="home" transform="translate(-672.000000, -732.000000)">
            <g id="catégories" transform="translate(428.000000, 552.000000)">
                <g id="item" transform="translate(244.000000, 180.000000)">
                    <g id="illustration">
                        <mask id="mask-2" fill="white">
                            <use xlink:href="#path-1"></use>
                        </mask>
                        <g id="bg">
                            <use fill="black" fill-opacity="1" filter="url(#filter-3)" xlink:href="#path-1"></use>
                            <use fill="#484291" fill-rule="evenodd" xlink:href="#path-1"></use>
                        </g>
                        <g id="jar" mask="url(#mask-2)">
                            <g transform="translate(55.000000, 25.000000)">
                                <rect id="Rectangle-28" fill="#93E0FF" x="8" y="27" width="22" height="54"></rect>
                                <path d="M13.2045898,46.3535156 L3.07434318,9.96108898 C2.48099982,7.82953136 3.78969447,6.00001955 5.9908485,5.87513138 L6.95934681,5.82018112 C9.16343158,5.69512667 12.3984064,6.63786803 13.4648438,7.40673828 L13.4648438,7.40673828 L17.0322266,6.27783203 L17.0803776,5.95629935 C17.4075919,3.77129555 19.4384396,2.25736471 21.6366807,2.577796 L19.7016982,2.29573916 C21.8908606,2.61484708 23.8457031,4.40917969 23.8457031,4.40917969 L23.8457031,4.40917969 L30.2182617,4.27929688 L33.5822407,5.44666839 C35.6712608,6.1716023 36.7872782,8.46307641 36.0804452,10.5485627 L23.5151367,47.6220703" id="Path-5" fill="#F4B64E"></path>
                                <g id="Group-6" stroke-width="1" fill="none" transform="translate(2.000000, 0.000000)">
                                    <g id="Group-5" opacity="0.847306437" transform="translate(9.000000, 3.000000)" fill="#FFD27C">
                                        <rect id="Rectangle-32" transform="translate(14.500000, 33.500000) rotate(17.000000) translate(-14.500000, -33.500000) " x="14" y="2" width="1" height="63"></rect>
                                        <rect id="Rectangle-32" transform="translate(14.500000, 33.500000) rotate(9.000000) translate(-14.500000, -33.500000) " x="14" y="2" width="1" height="63"></rect>
                                        <rect id="Rectangle-32" transform="translate(14.500000, 33.500000) rotate(13.000000) translate(-14.500000, -33.500000) " x="14" y="2" width="1" height="63"></rect>
                                        <g id="Group-4" transform="translate(12.500000, 32.500000) rotate(-3.000000) translate(-12.500000, -32.500000) translate(2.000000, 1.000000)">
                                            <polyline id="Rectangle-32" points="19.2315563 1.23021433 20.1878611 1.52258604 1.76844368 61.7697857 0.812138923 61.477414 19.2315563 1.23021433"></polyline>
                                            <polyline id="Rectangle-32" points="14.9338415 0.309600039 15.9215298 0.466034504 6.06615852 62.6904 5.07847018 62.5339655 14.9338415 0.309600039"></polyline>
                                            <polyline id="Rectangle-32" opacity="0.406599813" points="17.0987732 0.694867432 18.0731432 0.919818486 3.90122682 62.3051326 2.92685676 62.0801815 17.0987732 0.694867432"></polyline>
                                        </g>
                                    </g>
                                    <g id="Group-5" transform="translate(17.500000, 34.500000) rotate(-9.000000) translate(-17.500000, -34.500000) translate(5.000000, 2.000000)" fill="#FFD27C">
                                        <rect id="Rectangle-32" opacity="0.406599813" transform="translate(14.500000, 33.500000) rotate(17.000000) translate(-14.500000, -33.500000) " x="14" y="2" width="1" height="63"></rect>
                                        <rect id="Rectangle-32" transform="translate(14.500000, 33.500000) rotate(9.000000) translate(-14.500000, -33.500000) " x="14" y="2" width="1" height="63"></rect>
                                        <rect id="Rectangle-32" transform="translate(14.500000, 33.500000) rotate(13.000000) translate(-14.500000, -33.500000) " x="14" y="2" width="1" height="63"></rect>
                                        <g id="Group-4" transform="translate(12.500000, 32.500000) rotate(-3.000000) translate(-12.500000, -32.500000) translate(2.000000, 1.000000)">
                                            <polyline id="Rectangle-32" opacity="0.472889459" points="19.2315563 1.23021433 20.1878611 1.52258604 1.76844368 61.7697857 0.812138923 61.477414 19.2315563 1.23021433"></polyline>
                                            <polyline id="Rectangle-32" points="14.9338415 0.309600039 15.9215298 0.466034504 6.06615852 62.6904 5.07847018 62.5339655 14.9338415 0.309600039"></polyline>
                                            <polyline id="Rectangle-32" points="17.0987732 0.694867432 18.0731432 0.919818486 3.90122682 62.3051326 2.92685676 62.0801815 17.0987732 0.694867432"></polyline>
                                        </g>
                                    </g>
                                </g>
                                <g id="Group-6" stroke-width="1" fill="none" transform="translate(17.500000, 38.500000) scale(-1, 1) translate(-17.500000, -38.500000) translate(0.000000, 4.000000)">
                                    <g id="Group-5" transform="translate(8.000000, 1.000000)" fill="#FFD27C">
                                        <rect id="Rectangle-32" opacity="0.789354011" transform="translate(14.500000, 33.500000) rotate(17.000000) translate(-14.500000, -33.500000) " x="14" y="2" width="1" height="63"></rect>
                                        <rect id="Rectangle-32" transform="translate(14.500000, 33.500000) rotate(9.000000) translate(-14.500000, -33.500000) " x="14" y="2" width="1" height="63"></rect>
                                        <rect id="Rectangle-32" opacity="0.406599813" transform="translate(14.500000, 33.500000) rotate(13.000000) translate(-14.500000, -33.500000) " x="14" y="2" width="1" height="63"></rect>
                                        <g id="Group-4" transform="translate(12.500000, 32.500000) rotate(-3.000000) translate(-12.500000, -32.500000) translate(2.000000, 1.000000)">
                                            <polyline id="Rectangle-32" points="19.2315563 1.23021433 20.1878611 1.52258604 1.76844368 61.7697857 0.812138923 61.477414 19.2315563 1.23021433"></polyline>
                                            <polyline id="Rectangle-32" points="14.9338415 0.309600039 15.9215298 0.466034504 6.06615852 62.6904 5.07847018 62.5339655 14.9338415 0.309600039"></polyline>
                                            <polyline id="Rectangle-32" points="17.0987732 0.694867432 18.0731432 0.919818486 3.90122682 62.3051326 2.92685676 62.0801815 17.0987732 0.694867432"></polyline>
                                        </g>
                                    </g>
                                    <g id="Group-5" opacity="0.910797575" transform="translate(17.500000, 34.500000) rotate(-9.000000) translate(-17.500000, -34.500000) translate(5.000000, 2.000000)" fill="#FFD27C">
                                        <rect id="Rectangle-32" opacity="0.406599813" transform="translate(14.500000, 33.500000) rotate(17.000000) translate(-14.500000, -33.500000) " x="14" y="2" width="1" height="63"></rect>
                                        <rect id="Rectangle-32" transform="translate(14.500000, 33.500000) rotate(9.000000) translate(-14.500000, -33.500000) " x="14" y="2" width="1" height="63"></rect>
                                        <rect id="Rectangle-32" opacity="0.406599813" transform="translate(14.500000, 33.500000) rotate(13.000000) translate(-14.500000, -33.500000) " x="14" y="2" width="1" height="63"></rect>
                                        <g id="Group-4" transform="translate(12.500000, 32.500000) rotate(-3.000000) translate(-12.500000, -32.500000) translate(2.000000, 1.000000)">
                                            <polyline id="Rectangle-32" opacity="0.789354011" points="19.2315563 1.23021433 20.1878611 1.52258604 1.76844368 61.7697857 0.812138923 61.477414 19.2315563 1.23021433"></polyline>
                                            <polyline id="Rectangle-32" opacity="0.472889459" points="14.9338415 0.309600039 15.9215298 0.466034504 6.06615852 62.6904 5.07847018 62.5339655 14.9338415 0.309600039"></polyline>
                                            <polyline id="Rectangle-32" points="17.0987732 0.694867432 18.0731432 0.919818486 3.90122682 62.3051326 2.92685676 62.0801815 17.0987732 0.694867432"></polyline>
                                        </g>
                                    </g>
                                </g>
                                <rect id="Combined-Shape" fill="#E4F5FC" x="8" y="28" width="22" height="6"></rect>
                                <rect id="bottle" fill="#FFFFFF" opacity="0.517607276" x="9" y="30" width="8" height="3" rx="1"></rect>
                                <rect id="bottle" fill="#FFFFFF" opacity="0.170242537" x="9" y="36" width="8" height="13" rx="1"></rect>
                                <rect id="Rectangle-31" fill="#88D8F9" opacity="0.284923041" x="8" y="28" width="22" height="1"></rect>
                                <rect id="Rectangle-31" fill="#88D8F9" opacity="0.565240205" x="8" y="34" width="22" height="1"></rect>
                            </g>
                        </g>
                        <rect id="Rectangle-29" fill="#93E0FF" mask="url(#mask-2)" x="62" y="53" width="24" height="2" rx="1"></rect>
                        <g id="bread" mask="url(#mask-2)">
                            <g transform="translate(70.500000, 94.500000) scale(-1, 1) translate(-70.500000, -94.500000) translate(49.000000, 77.000000)">
                                <g id="bg" stroke-width="1" fill="none" fill-rule="evenodd" transform="translate(10.000000, 0.000000)">
                                    <mask id="mask-5" fill="white">
                                        <use xlink:href="#path-4"></use>
                                    </mask>
                                    <use id="Combined-Shape" fill="#FFAF3A" xlink:href="#path-4"></use>
                                    <rect id="Rectangle-24" fill="#F2A028" opacity="0.481809701" mask="url(#mask-5)" x="20" y="19" width="23" height="2"></rect>
                                    <rect id="Rectangle-24" fill-opacity="0.304574275" fill="#FFD27C" mask="url(#mask-5)" x="0" y="0" width="43" height="2"></rect>
                                    <rect id="Rectangle-24" fill="#F2A028" opacity="0.265041978" mask="url(#mask-5)" x="20" y="29" width="23" height="6"></rect>
                                </g>
                                <g id="Combined-Shape" fill="none">
                                    <use fill="#FFD27C" fill-rule="evenodd" xlink:href="#path-6"></use>
                                    <path stroke="#F2A028" stroke-width="2" d="M4,34 L29,34 L29,20.0004384 L29.9995612,19.9999998 C31.1094964,19.9995128 32,19.1045295 32,17.991212 L32,10.5 C32,5.2526802 27.7431406,1 22.4905629,1 L10.5094371,1 C5.24952114,1 1,5.24910843 1,10.5 L1,17.991212 C1,19.1017465 1.89547951,19.9995101 3.00044322,19.9999998 L4,20.0004428 L4,34 Z"></path>
                                </g>
                                <g id="Combined-Shape" fill="none" opacity="0.0524720149" transform="translate(37.500000, 26.615320) scale(-1, 1) translate(-37.500000, -26.615320) ">
                                    <use fill="#000000" fill-rule="evenodd" xlink:href="#path-7"></use>
                                    <use fill="black" fill-opacity="1" filter="url(#filter-8)" xlink:href="#path-7"></use>
                                </g>
                                <circle id="Oval-15" fill="#FFAF3A" fill-rule="evenodd" opacity="0.534923041" cx="8" cy="9" r="1"></circle>
                                <circle id="Oval-15" fill="#FFAF3A" fill-rule="evenodd" opacity="0.534923041" cx="18" cy="19" r="1"></circle>
                                <circle id="Oval-15" fill="#FFAF3A" fill-rule="evenodd" opacity="0.534923041" cx="11" cy="26" r="1"></circle>
                                <circle id="Oval-15" fill="#FFAF3A" fill-rule="evenodd" opacity="0.534923041" cx="24" cy="7" r="1"></circle>
                                <circle id="Oval-15" fill="#FFAF3A" fill-rule="evenodd" opacity="0.534923041" cx="17.5" cy="12.5" r="1"></circle>
                                <circle id="Oval-15" fill="#FFAF3A" fill-rule="evenodd" opacity="0.534923041" cx="22.5" cy="28.5" r="1"></circle>
                                <circle id="Oval-15" fill="#FFAF3A" fill-rule="evenodd" opacity="0.534923041" cx="9.5" cy="16.5" r="1"></circle>
                            </g>
                        </g>
                        <polygon id="Rectangle-27" fill="#D08A23" mask="url(#mask-2)" points="14.2406463 53.9763429 31.0520574 84.7645155 29.6058344 85.5994928 12.0713118 55.2288088"></polygon>
                        <path d="M34,107 C44.4934102,107 53,98.9411255 53,89 C53,79.0588745 37.5960917,72.7396107 37.5960917,72.7396107 C35.6100251,71.7788502 32.3800707,71.7447703 30.4039083,72.7396107 C30.4039083,72.7396107 15,79.0588745 15,89 C15,98.9411255 23.5065898,107 34,107 Z" id="Oval-16" fill="#FFFFFF" mask="url(#mask-2)"></path>
                        <rect id="Rectangle-26" fill="#FFFFFF" mask="url(#mask-2)" transform="translate(42.500000, 76.000000) rotate(-15.000000) translate(-42.500000, -76.000000) " x="40" y="75" width="5" height="2" rx="1"></rect>
                        <rect id="Rectangle-26" fill="#FFFFFF" mask="url(#mask-2)" transform="translate(20.500000, 80.000000) rotate(-15.000000) translate(-20.500000, -80.000000) " x="18" y="79" width="5" height="2" rx="1"></rect>
                        <rect id="Rectangle-26" fill="#FFFFFF" mask="url(#mask-2)" transform="translate(49.500000, 84.000000) rotate(-15.000000) translate(-49.500000, -84.000000) " x="47" y="83" width="5" height="2" rx="1"></rect>
                        <rect id="Rectangle-26" fill="#FFFFFF" mask="url(#mask-2)" transform="translate(29.500000, 74.000000) rotate(24.000000) translate(-29.500000, -74.000000) " x="27" y="73" width="5" height="2" rx="1"></rect>
                        <g id="spice" mask="url(#mask-2)">
                            <g transform="translate(13.000000, 47.000000)">
                                <g id="salad" fill="none">
                                    <use fill="#68D4FF" fill-rule="evenodd" xlink:href="#path-9"></use>
                                    <use fill="black" fill-opacity="1" filter="url(#filter-10)" xlink:href="#path-9"></use>
                                </g>
                                <rect id="line" fill="#FFFFFF" fill-rule="evenodd" x="0" y="43" width="42" height="4"></rect>
                                <polygon id="Rectangle-27" fill="#F2A028" fill-rule="evenodd" points="12.4615258 0.158730894 19.5367676 34.5167877 17.9096139 34.8924458 10.0207952 0.722217944"></polygon>
                                <circle id="Oval-17" fill="#FFFFFF" fill-rule="evenodd" cx="18.5" cy="34.5" r="3.5"></circle>
                                <rect id="dot" fill="#EFEFEF" fill-rule="evenodd" opacity="0.463561101" x="10" y="37" width="1" height="1"></rect>
                                <rect id="dot" fill="#EFEFEF" fill-rule="evenodd" x="6" y="38" width="1" height="1"></rect>
                                <rect id="dot" fill="#EFEFEF" fill-rule="evenodd" opacity="0.463561101" x="11" y="35" width="1" height="1"></rect>
                                <rect id="dot" fill="#EFEFEF" fill-rule="evenodd" x="14" y="38" width="1" height="1"></rect>
                                <rect id="dot" fill="#EFEFEF" fill-rule="evenodd" x="18" y="37" width="1" height="1"></rect>
                                <rect id="dot" fill="#EFEFEF" fill-rule="evenodd" x="15" y="35" width="1" height="1"></rect>
                                <rect id="dot" fill="#EFEFEF" fill-rule="evenodd" opacity="0.463561101" x="23" y="37" width="1" height="1"></rect>
                                <rect id="dot" fill="#EFEFEF" fill-rule="evenodd" x="19" y="38" width="1" height="1"></rect>
                                <rect id="dot" fill="#EFEFEF" fill-rule="evenodd" opacity="0.463561101" x="24" y="35" width="1" height="1"></rect>
                                <rect id="dot" fill="#EFEFEF" fill-rule="evenodd" x="27" y="38" width="1" height="1"></rect>
                                <rect id="dot" fill="#EFEFEF" fill-rule="evenodd" x="31" y="37" width="1" height="1"></rect>
                                <rect id="dot" fill="#EFEFEF" fill-rule="evenodd" x="28" y="35" width="1" height="1"></rect>
                                <rect id="dot" fill="#EFEFEF" fill-rule="evenodd" opacity="0.463561101" x="19" y="31" width="1" height="1"></rect>
                                <rect id="dot" fill="#EFEFEF" fill-rule="evenodd" x="15" y="32" width="1" height="1"></rect>
                                <rect id="dot" fill="#EFEFEF" fill-rule="evenodd" opacity="0.463561101" x="20" y="29" width="1" height="1"></rect>
                                <rect id="dot" fill="#EFEFEF" fill-rule="evenodd" x="23" y="32" width="1" height="1"></rect>
                                <rect id="dot" fill="#EFEFEF" fill-rule="evenodd" x="27" y="31" width="1" height="1"></rect>
                                <rect id="dot" fill="#EFEFEF" fill-rule="evenodd" x="24" y="29" width="1" height="1"></rect>
                                <g id="salad" fill="none">
                                    <use fill="#42BAEB" fill-rule="evenodd" xlink:href="#path-11"></use>
                                    <use fill="black" fill-opacity="1" filter="url(#filter-12)" xlink:href="#path-11"></use>
                                </g>
                                <path d="M8,63.5 C8,62.6715729 8.6688281,62 9.49125692,62 L32.5087431,62 C33.3323415,62 34,62.6657972 34,63.5 L34,65 L8,65 L8,63.5 Z" id="salad" fill="#5FCDFA" fill-rule="evenodd"></path>
                            </g>
                        </g>
                        <rect id="shadow" fill="#302B6F" mask="url(#mask-2)" x="10" y="112" width="90" height="3" rx="1.5"></rect>
                    </g>
                </g>
            </g>
        </g>
    </g>
</svg>