<?xml version="1.0" encoding="UTF-8"?>
<svg width="110px" height="128px" viewBox="0 0 110 128" version="1.1" xmlns="http://www.w3.org/2000/svg" xmlns:xlink="http://www.w3.org/1999/xlink">
    <!-- Generator: Sketch 45.2 (43514) - http://www.bohemiancoding.com/sketch -->
    <title>bg</title>
    <desc>Created with Sketch.</desc>
    <defs>
        <rect id="path-1" x="0" y="0" width="110" height="128"></rect>
        <filter x="-11.8%" y="-8.6%" width="123.6%" height="120.3%" filterUnits="objectBoundingBox" id="filter-3">
            <feOffset dx="0" dy="2" in="SourceAlpha" result="shadowOffsetOuter1"></feOffset>
            <feGaussianBlur stdDeviation="4" in="shadowOffsetOuter1" result="shadowBlurOuter1"></feGaussianBlur>
            <feColorMatrix values="0 0 0 0 0   0 0 0 0 0   0 0 0 0 0  0 0 0 0.15 0" type="matrix" in="shadowBlurOuter1"></feColorMatrix>
        </filter>
        <rect id="path-4" x="0" y="0" width="18" height="7" rx="1"></rect>
        <filter x="-2.8%" y="-7.1%" width="105.6%" height="114.3%" filterUnits="objectBoundingBox" id="filter-5">
            <feOffset dx="0" dy="-1" in="SourceAlpha" result="shadowOffsetInner1"></feOffset>
            <feComposite in="shadowOffsetInner1" in2="SourceAlpha" operator="arithmetic" k2="-1" k3="1" result="shadowInnerInner1"></feComposite>
            <feColorMatrix values="0 0 0 0 0.890196078   0 0 0 0 0.890196078   0 0 0 0 0.890196078  0 0 0 1 0" type="matrix" in="shadowInnerInner1"></feColorMatrix>
        </filter>
        <path d="M0,6.70053177 C0,5.04271843 1.08492553,2.89621171 2.41212547,1.91440357 L5,0 L17,0 L19.5878745,1.91440357 C20.9200546,2.89989584 22,5.04123405 22,6.70053177 L22,26.9935085 C22,28.1016632 21.1103261,29 20.008845,29 L1.991155,29 C0.891470458,29 0,28.0995167 0,26.9935085 L0,6.70053177 Z" id="path-6"></path>
        <filter x="-4.5%" y="-3.4%" width="109.1%" height="106.9%" filterUnits="objectBoundingBox" id="filter-8">
            <feOffset dx="0" dy="-2" in="SourceAlpha" result="shadowOffsetInner1"></feOffset>
            <feComposite in="shadowOffsetInner1" in2="SourceAlpha" operator="arithmetic" k2="-1" k3="1" result="shadowInnerInner1"></feComposite>
            <feColorMatrix values="0 0 0 0 0.196078431   0 0 0 0 0.831372549   0 0 0 0 1  0 0 0 0.174365942 0" type="matrix" in="shadowInnerInner1"></feColorMatrix>
        </filter>
        <path d="M0,7 C0,14.7319865 6.2680135,21 14,21 C21.7319865,21 28,14.7319865 28,7 L0,7 Z" id="path-9"></path>
        <filter x="-8.9%" y="-17.9%" width="117.9%" height="135.7%" filterUnits="objectBoundingBox" id="filter-10">
            <feOffset dx="0" dy="-5" in="SourceAlpha" result="shadowOffsetInner1"></feOffset>
            <feComposite in="shadowOffsetInner1" in2="SourceAlpha" operator="arithmetic" k2="-1" k3="1" result="shadowInnerInner1"></feComposite>
            <feColorMatrix values="0 0 0 0 0.678431373   0 0 0 0 0.478431373   0 0 0 0 0.203921569  0 0 0 0.3 0" type="matrix" in="shadowInnerInner1"></feColorMatrix>
        </filter>
        <path d="M0,7.5 C0,6.67157288 0.664521635,6 1.50540161,6 L26.4945984,6 C27.3260087,6 28,6.66579723 28,7.5 L28,9 L0,9 L0,7.5 Z" id="path-11"></path>
        <filter x="-3.6%" y="-33.3%" width="107.1%" height="166.7%" filterUnits="objectBoundingBox" id="filter-12">
            <feOffset dx="0" dy="-2" in="SourceAlpha" result="shadowOffsetInner1"></feOffset>
            <feComposite in="shadowOffsetInner1" in2="SourceAlpha" operator="arithmetic" k2="-1" k3="1" result="shadowInnerInner1"></feComposite>
            <feColorMatrix values="0 0 0 0 0.64   0 0 0 0 0.453333333   0 0 0 0 0.192  0 0 0 1 0" type="matrix" in="shadowInnerInner1"></feColorMatrix>
        </filter>
        <path d="M0,6.70053177 C0,5.04271843 1.08492553,2.89621171 2.41212547,1.91440357 L5,0 L17,0 L19.5878745,1.91440357 C20.9200546,2.89989584 22,5.04123405 22,6.70053177 L22,26.9935085 C22,28.1016632 21.1103261,29 20.008845,29 L1.991155,29 C0.891470458,29 0,28.0995167 0,26.9935085 L0,6.70053177 Z" id="path-13"></path>
        <filter x="-4.5%" y="-3.4%" width="109.1%" height="106.9%" filterUnits="objectBoundingBox" id="filter-15">
            <feOffset dx="0" dy="-2" in="SourceAlpha" result="shadowOffsetInner1"></feOffset>
            <feComposite in="shadowOffsetInner1" in2="SourceAlpha" operator="arithmetic" k2="-1" k3="1" result="shadowInnerInner1"></feComposite>
            <feColorMatrix values="0 0 0 0 0.196078431   0 0 0 0 0.831372549   0 0 0 0 1  0 0 0 0.174365942 0" type="matrix" in="shadowInnerInner1"></feColorMatrix>
        </filter>
    </defs>
    <g id="Page-1" stroke="none" stroke-width="1" fill="none" fill-rule="evenodd">
        <g id="home" transform="translate(-794.000000, -552.000000)">
            <g id="catégories" transform="translate(428.000000, 552.000000)">
                <g id="item" transform="translate(366.000000, 0.000000)">
                    <g id="illustration">
                        <mask id="mask-2" fill="white">
                            <use xlink:href="#path-1"></use>
                        </mask>
                        <g id="bg">
                            <use fill="black" fill-opacity="1" filter="url(#filter-3)" xlink:href="#path-1"></use>
                            <use fill="#9F57B6" fill-rule="evenodd" xlink:href="#path-1"></use>
                        </g>
                        <g id="bottle" mask="url(#mask-2)">
                            <g transform="translate(44.000000, 20.000000)">
                                <path d="M10.0885181,48.9916575 C10.0396309,47.8916955 10.8915398,47 11.9972916,47 L48.0027084,47 C49.1057821,47 49.9600492,47.8988921 49.9114819,48.9916575 L48.0885181,90.0083425 C48.0396309,91.1083045 47.1101074,92 46.0002927,92 L13.9997073,92 C12.8952994,92 11.9600492,91.1011079 11.9114819,90.0083425 L10.0885181,48.9916575 Z" id="bottle" fill="#F64848"></path>
                                <path d="M13.125109,55.0017433 C13.0560132,53.896211 13.8919411,53 14.9999204,53 L45.0000796,53 C46.1046051,53 46.9444211,53.8892617 46.874891,55.0017433 L45.125109,82.9982567 C45.0560132,84.103789 44.1021596,85 43.008383,85 L16.991617,85 C15.8916773,85 14.9444211,84.1107383 14.874891,82.9982567 L13.125109,55.0017433 Z" id="sticker" fill="#FFFFFF"></path>
                                <circle id="bottle" fill="#F64848" cx="30" cy="66" r="9"></circle>
                                <rect id="bottle" fill="#F64848" x="19" y="79" width="22" height="2" rx="1"></rect>
                                <rect id="shadow" fill="#D43D3D" x="13" y="49" width="34" height="2" rx="1"></rect>
                                <rect id="shadow" fill="#D43D3D" x="15" y="87" width="30" height="2" rx="1"></rect>
                                <path d="M20,92.6527377 C24.1547971,90.6790089 27.1832091,86.7190917 27.8582223,82 L28,82 L28,80.5 C28,80.4583976 27.9983237,80.417214 27.9950352,80.3765109 C27.9983382,80.2514092 28,80.1258987 28,80 L27.9151443,80 C27.7091303,79.4148911 27.1509122,79 26.4945984,79 L1.50540161,79 C0.842474708,79 0.289160101,79.4174038 0.0846571519,80 L0,80 C0,80.125885 0.00166148121,80.2513819 0.00496371097,80.37647 C0.00167516556,80.4172078 0,80.4584062 0,80.5 L0,82 L0.141777717,82 C0.816790902,86.7190917 3.84520292,90.6790089 8,92.6527377 L8,94 L20,94 L20,92.6527377 Z M11.0491006,73.899784 C12.6788373,72.9812386 15.3185365,72.9797585 16.9508994,73.899784 L26,79 L2,79 L11.0491006,73.899784 Z" id="shadow" fill="#1F0F24" opacity="0.164820429"></path>
                                <path d="M38.0323479,20 C38.4662274,30.4418925 43.2108559,47 49,47 L11,47 C16.7335388,47 21.4425309,28.9648101 21.9539596,20 L38.0323479,20 Z" id="bottle" fill="#F64848"></path>
                                <g id="top" stroke-width="1" fill="none" transform="translate(21.000000, 0.000000)">
                                    <rect id="bottle" fill="#F64848" x="1" y="7" width="16" height="13"></rect>
                                    <g id="cap">
                                        <use fill="#FFFFFF" fill-rule="evenodd" xlink:href="#path-4"></use>
                                        <use fill="black" fill-opacity="1" filter="url(#filter-5)" xlink:href="#path-4"></use>
                                    </g>
                                    <rect id="cap" fill="#F64848" x="0" y="8" width="18" height="2" rx="1"></rect>
                                    <rect id="shadow" fill="#D43D3D" x="1" y="7" width="16" height="1"></rect>
                                    <rect id="shadow" fill="#D43D3D" x="1" y="10" width="16" height="2"></rect>
                                </g>
                            </g>
                        </g>
                        <rect id="shadow" fill="#874B9C" mask="url(#mask-2)" x="10" y="112" width="90" height="3" rx="1.5"></rect>
                        <g id="salt" mask="url(#mask-2)">
                            <g transform="translate(33.000000, 71.000000)" id="bottle">
                                <g stroke-width="1" fill="none" transform="translate(0.000000, 12.000000)">
                                    <mask id="mask-7" fill="white">
                                        <use xlink:href="#path-6"></use>
                                    </mask>
                                    <g>
                                        <use fill="#9DE2FF" fill-rule="evenodd" xlink:href="#path-6"></use>
                                        <use fill="black" fill-opacity="1" filter="url(#filter-8)" xlink:href="#path-6"></use>
                                    </g>
                                    <path d="M20,11 L20,25.9991283 C20,26.5518945 19.5550537,27 19.0066023,27 L2.99339768,27 C2.44475929,27 2,26.5553691 2,25.9991283 L2,11 C2,9.8954305 6.02943725,9 11,9 C15.9705627,9 20,9.8954305 20,11 Z" id="salt" fill="#564F44" mask="url(#mask-7)"></path>
                                    <circle id="dot" fill="#C98F40" opacity="0.34375" mask="url(#mask-7)" cx="7.5" cy="12.5" r="1"></circle>
                                    <circle id="dot" fill="#C98F40" opacity="0.34375" mask="url(#mask-7)" cx="13.5" cy="12.5" r="1"></circle>
                                    <circle id="dot" fill="#C98F40" opacity="0.34375" mask="url(#mask-7)" cx="4.5" cy="16.5" r="1"></circle>
                                    <circle id="dot" fill="#C98F40" opacity="0.34375" mask="url(#mask-7)" cx="7.5" cy="15.5" r="1"></circle>
                                    <circle id="dot" fill="#C98F40" opacity="0.34375" mask="url(#mask-7)" cx="3.5" cy="12.5" r="1"></circle>
                                    <circle id="dot" fill="#C98F40" opacity="0.34375" mask="url(#mask-7)" cx="7.5" cy="9.5" r="1"></circle>
                                    <circle id="dot" fill="#C98F40" opacity="0.34375" mask="url(#mask-7)" cx="10.5" cy="13.5" r="1"></circle>
                                    <circle id="dot" fill="#C98F40" opacity="0.34375" mask="url(#mask-7)" cx="13.5" cy="17.5" r="1"></circle>
                                    <circle id="dot" fill="#C98F40" opacity="0.34375" mask="url(#mask-7)" cx="10.5" cy="20.5" r="1"></circle>
                                    <circle id="dot" fill="#C98F40" opacity="0.34375" mask="url(#mask-7)" cx="4.5" cy="20.5" r="1"></circle>
                                    <circle id="dot" fill="#C98F40" opacity="0.34375" mask="url(#mask-7)" cx="7.5" cy="24.5" r="1"></circle>
                                    <circle id="dot" fill="#C98F40" opacity="0.34375" mask="url(#mask-7)" cx="13.5" cy="24.5" r="1"></circle>
                                    <circle id="dot" fill="#C98F40" opacity="0.34375" mask="url(#mask-7)" cx="16.5" cy="21.5" r="1"></circle>
                                    <circle id="dot" fill="#C98F40" opacity="0.34375" mask="url(#mask-7)" cx="10.5" cy="16.5" r="1"></circle>
                                    <circle id="dot" fill="#C98F40" opacity="0.34375" mask="url(#mask-7)" cx="16.5" cy="16.5" r="1"></circle>
                                    <circle id="dot" fill="#C98F40" opacity="0.34375" mask="url(#mask-7)" cx="7.5" cy="20.5" r="1"></circle>
                                    <circle id="dot" fill="#C98F40" opacity="0.34375" mask="url(#mask-7)" cx="13.5" cy="20.5" r="1"></circle>
                                    <circle id="dot" fill="#C98F40" opacity="0.34375" mask="url(#mask-7)" cx="4.5" cy="24.5" r="1"></circle>
                                    <circle id="dot" fill="#C98F40" opacity="0.34375" mask="url(#mask-7)" cx="10.5" cy="24.5" r="1"></circle>
                                    <circle id="dot" fill="#C98F40" opacity="0.34375" mask="url(#mask-7)" cx="16.5" cy="24.5" r="1"></circle>
                                    <rect id="shadow" fill-opacity="0.5" fill="#CEF5FF" mask="url(#mask-7)" x="1" y="8" width="2" height="17" rx="1"></rect>
                                    <rect fill="#88D8F9" mask="url(#mask-7)" x="2" y="1" width="18" height="2"></rect>
                                    <path d="M-14,7.70053177 C-14,6.04271843 -12.9150745,3.89621171 -11.5878745,2.91440357 L-9,1 L3,1 L5.58787453,2.91440357 C6.92005464,3.89989584 8,6.04123405 8,7.70053177 L8,27.9935085 C8,29.1016632 7.11032605,30 6.008845,30 L-12.008845,30 C-13.1085295,30 -14,29.0995167 -14,27.9935085 L-14,7.70053177 Z" fill="#392A3E" opacity="0.191464552" mask="url(#mask-7)"></path>
                                </g>
                                <rect fill="#9DE2FF" x="3" y="12" width="16" height="1" rx="0.5"></rect>
                                <rect fill="#E4F5FC" x="3" y="8" width="16" height="3" rx="1.5"></rect>
                                <rect fill="#D4ECF7" x="4" y="7" width="14" height="1"></rect>
                                <path d="M3,3.5 C3,1.56700338 4.56327939,0 6.49149665,0 L15.5085033,0 C17.4368037,0 19,1.57093664 19,3.5 L19,5.99707067 C19,6.55097324 18.5553691,7 17.9991283,7 L4.00087166,7 C3.4481055,7 3,6.56211865 3,5.99707067 L3,3.5 Z" fill="#E4F5FC"></path>
                                <path d="M5,3.5 C5,2.67157288 5.66831553,2 6.50473881,2 L11.4952612,2 C12.3263055,2 13,2.66579723 13,3.5 L13,4.00104344 C13,4.55275191 12.5469637,5 12.0029699,5 L5.99703014,5 C5.4463856,5 5,4.55733967 5,4.00104344 L5,3.5 Z" fill="#FFFFFF" opacity="0.517607276"></path>
                                <path d="M5,9.5 C5,9.22385763 5.23079681,9 5.50043583,9 L12.4995642,9 C12.7759472,9 13,9.23193359 13,9.5 L13,9.5 C13,9.77614237 12.7692032,10 12.4995642,10 L5.50043583,10 C5.22405275,10 5,9.76806641 5,9.5 L5,9.5 Z" fill="#FFFFFF" opacity="0.517607276"></path>
                                <rect fill="#88D8F9" x="4" y="11" width="14" height="1"></rect>
                            </g>
                        </g>
                        <g id="spice" mask="url(#mask-2)">
                            <g transform="translate(43.000000, 91.000000)">
                                <g id="salad" fill="none">
                                    <use fill="#C98F40" fill-rule="evenodd" xlink:href="#path-9"></use>
                                    <use fill="black" fill-opacity="1" filter="url(#filter-10)" xlink:href="#path-9"></use>
                                </g>
                                <path d="M11.0491006,0.899783985 C12.6788373,-0.0187613847 15.3185365,-0.0202415284 16.9508994,0.899783985 L26,6 L2,6 L11.0491006,0.899783985 Z" id="Triangle" fill="#FFDA3A" fill-rule="evenodd"></path>
                                <rect id="dot" fill="#FFBE3A" fill-rule="evenodd" opacity="0.463561101" x="11" y="4" width="1" height="1"></rect>
                                <rect id="dot" fill="#FFBE3A" fill-rule="evenodd" x="7" y="5" width="1" height="1"></rect>
                                <rect id="dot" fill="#FFBE3A" fill-rule="evenodd" opacity="0.463561101" x="12" y="2" width="1" height="1"></rect>
                                <rect id="dot" fill="#FFBE3A" fill-rule="evenodd" x="15" y="5" width="1" height="1"></rect>
                                <rect id="dot" fill="#FFBE3A" fill-rule="evenodd" x="19" y="4" width="1" height="1"></rect>
                                <rect id="dot" fill="#FFBE3A" fill-rule="evenodd" x="16" y="2" width="1" height="1"></rect>
                                <g id="salad" fill="none">
                                    <use fill="#AD7A34" fill-rule="evenodd" xlink:href="#path-11"></use>
                                    <use fill="black" fill-opacity="1" filter="url(#filter-12)" xlink:href="#path-11"></use>
                                </g>
                                <path d="M8,19.5 C8,18.6715729 8.67955446,18 9.49554521,18 L18.5044548,18 C19.3304216,18 20,18.6657972 20,19.5 L20,21 L8,21 L8,19.5 Z" id="salad" fill="#C0883C" fill-rule="evenodd"></path>
                            </g>
                        </g>
                        <g id="salt" mask="url(#mask-2)">
                            <g transform="translate(16.000000, 71.000000)" id="bottle">
                                <g stroke-width="1" fill="none" transform="translate(0.000000, 12.000000)">
                                    <mask id="mask-14" fill="white">
                                        <use xlink:href="#path-13"></use>
                                    </mask>
                                    <g>
                                        <use fill="#9DE2FF" fill-rule="evenodd" xlink:href="#path-13"></use>
                                        <use fill="black" fill-opacity="1" filter="url(#filter-15)" xlink:href="#path-13"></use>
                                    </g>
                                    <path d="M20,7 L20,26.0081969 C20,26.5559546 19.5550537,27 19.0066023,27 L2.99339768,27 C2.44475929,27 2,26.5446944 2,26.0081969 L2,7 C2,5.8954305 6.02943725,5 11,5 C15.9705627,5 20,5.8954305 20,7 Z" id="salt" fill="#FFFFFF" mask="url(#mask-14)"></path>
                                    <circle id="dot" fill-opacity="0.445227582" fill="#88D8F9" mask="url(#mask-14)" cx="4.5" cy="8.5" r="1"></circle>
                                    <circle id="dot" fill-opacity="0.445227582" fill="#88D8F9" mask="url(#mask-14)" cx="7.5" cy="12.5" r="1"></circle>
                                    <circle id="dot" fill-opacity="0.445227582" fill="#88D8F9" mask="url(#mask-14)" cx="10.5" cy="8.5" r="1"></circle>
                                    <circle id="dot" fill-opacity="0.445227582" fill="#88D8F9" mask="url(#mask-14)" cx="13.5" cy="12.5" r="1"></circle>
                                    <circle id="dot" fill-opacity="0.445227582" fill="#88D8F9" mask="url(#mask-14)" cx="16.5" cy="8.5" r="1"></circle>
                                    <circle id="dot" fill-opacity="0.445227582" fill="#88D8F9" mask="url(#mask-14)" cx="4.5" cy="16.5" r="1"></circle>
                                    <circle id="dot" fill-opacity="0.445227582" fill="#88D8F9" opacity="0.289995336" mask="url(#mask-14)" cx="7.5" cy="15.5" r="1"></circle>
                                    <circle id="dot" fill-opacity="0.445227582" fill="#88D8F9" opacity="0.289995336" mask="url(#mask-14)" cx="3.5" cy="12.5" r="1"></circle>
                                    <circle id="dot" fill-opacity="0.445227582" fill="#88D8F9" opacity="0.289995336" mask="url(#mask-14)" cx="7.5" cy="9.5" r="1"></circle>
                                    <circle id="dot" fill-opacity="0.445227582" fill="#88D8F9" opacity="0.289995336" mask="url(#mask-14)" cx="10.5" cy="13.5" r="1"></circle>
                                    <circle id="dot" fill-opacity="0.445227582" fill="#88D8F9" opacity="0.289995336" mask="url(#mask-14)" cx="13.5" cy="17.5" r="1"></circle>
                                    <circle id="dot" fill-opacity="0.445227582" fill="#88D8F9" opacity="0.289995336" mask="url(#mask-14)" cx="10.5" cy="20.5" r="1"></circle>
                                    <circle id="dot" fill-opacity="0.445227582" fill="#88D8F9" opacity="0.289995336" mask="url(#mask-14)" cx="4.5" cy="20.5" r="1"></circle>
                                    <circle id="dot" fill-opacity="0.445227582" fill="#88D8F9" opacity="0.289995336" mask="url(#mask-14)" cx="7.5" cy="24.5" r="1"></circle>
                                    <circle id="dot" fill-opacity="0.445227582" fill="#88D8F9" opacity="0.289995336" mask="url(#mask-14)" cx="13.5" cy="24.5" r="1"></circle>
                                    <circle id="dot" fill-opacity="0.445227582" fill="#88D8F9" opacity="0.289995336" mask="url(#mask-14)" cx="16.5" cy="21.5" r="1"></circle>
                                    <circle id="dot" fill-opacity="0.445227582" fill="#88D8F9" mask="url(#mask-14)" cx="10.5" cy="16.5" r="1"></circle>
                                    <circle id="dot" fill-opacity="0.445227582" fill="#88D8F9" mask="url(#mask-14)" cx="16.5" cy="16.5" r="1"></circle>
                                    <circle id="dot" fill-opacity="0.445227582" fill="#88D8F9" mask="url(#mask-14)" cx="7.5" cy="20.5" r="1"></circle>
                                    <circle id="dot" fill-opacity="0.445227582" fill="#88D8F9" mask="url(#mask-14)" cx="13.5" cy="20.5" r="1"></circle>
                                    <circle id="dot" fill-opacity="0.445227582" fill="#88D8F9" mask="url(#mask-14)" cx="4.5" cy="24.5" r="1"></circle>
                                    <circle id="dot" fill-opacity="0.445227582" fill="#88D8F9" mask="url(#mask-14)" cx="10.5" cy="24.5" r="1"></circle>
                                    <circle id="dot" fill-opacity="0.445227582" fill="#88D8F9" mask="url(#mask-14)" cx="16.5" cy="24.5" r="1"></circle>
                                    <rect id="shadow" fill-opacity="0.5" fill="#CEF5FF" mask="url(#mask-14)" x="19" y="8" width="2" height="17" rx="1"></rect>
                                    <rect id="shadow" fill-opacity="0.5" fill="#CEF5FF" mask="url(#mask-14)" x="1" y="8" width="2" height="17" rx="1"></rect>
                                    <rect fill="#88D8F9" mask="url(#mask-14)" x="2" y="1" width="18" height="2"></rect>
                                </g>
                                <rect fill="#9DE2FF" x="3" y="12" width="16" height="1" rx="0.5"></rect>
                                <rect fill="#E4F5FC" x="3" y="8" width="16" height="3" rx="1.5"></rect>
                                <rect fill="#D4ECF7" x="4" y="7" width="14" height="1"></rect>
                                <path d="M3,3.5 C3,1.56700338 4.56327939,0 6.49149665,0 L15.5085033,0 C17.4368037,0 19,1.57093664 19,3.5 L19,5.99707067 C19,6.55097324 18.5553691,7 17.9991283,7 L4.00087166,7 C3.4481055,7 3,6.56211865 3,5.99707067 L3,3.5 Z" fill="#E4F5FC"></path>
                                <path d="M5,3.5 C5,2.67157288 5.66831553,2 6.50473881,2 L11.4952612,2 C12.3263055,2 13,2.66579723 13,3.5 L13,4.00104344 C13,4.55275191 12.5469637,5 12.0029699,5 L5.99703014,5 C5.4463856,5 5,4.55733967 5,4.00104344 L5,3.5 Z" fill="#FFFFFF" opacity="0.517607276"></path>
                                <path d="M5,9.5 C5,9.22385763 5.23079681,9 5.50043583,9 L12.4995642,9 C12.7759472,9 13,9.23193359 13,9.5 L13,9.5 C13,9.77614237 12.7692032,10 12.4995642,10 L5.50043583,10 C5.22405275,10 5,9.76806641 5,9.5 L5,9.5 Z" fill="#FFFFFF" opacity="0.517607276"></path>
                                <rect fill="#88D8F9" x="4" y="11" width="14" height="1"></rect>
                            </g>
                        </g>
                    </g>
                </g>
            </g>
        </g>
    </g>
</svg>