<?xml version="1.0" encoding="UTF-8"?>
<svg width="110px" height="128px" viewBox="0 0 110 128" version="1.1" xmlns="http://www.w3.org/2000/svg" xmlns:xlink="http://www.w3.org/1999/xlink">
    <!-- Generator: Sketch 45.2 (43514) - http://www.bohemiancoding.com/sketch -->
    <title>bg</title>
    <desc>Created with Sketch.</desc>
    <defs>
        <rect id="path-1" x="0" y="0" width="110" height="128"></rect>
        <filter x="-11.8%" y="-8.6%" width="123.6%" height="120.3%" filterUnits="objectBoundingBox" id="filter-3">
            <feOffset dx="0" dy="2" in="SourceAlpha" result="shadowOffsetOuter1"></feOffset>
            <feGaussianBlur stdDeviation="4" in="shadowOffsetOuter1" result="shadowBlurOuter1"></feGaussianBlur>
            <feColorMatrix values="0 0 0 0 0   0 0 0 0 0   0 0 0 0 0  0 0 0 0.15 0" type="matrix" in="shadowBlurOuter1"></feColorMatrix>
        </filter>
        <polygon id="path-4" points="0 0 62 0 58 69 4 69"></polygon>
        <path d="M19,23.999615 C19,22.8952581 19.8799647,21.8646208 20.975566,21.6960668 L43.024434,18.3039332 C44.115509,18.1360755 45,18.8874333 45,19.999615 L45,26.000385 C45,27.1047419 44.1200353,28.1353792 43.024434,28.3039332 L20.975566,31.6960668 C19.884491,31.8639245 19,31.1125667 19,30.000385 L19,23.999615 Z" id="path-6"></path>
        <path d="M0.110830193,11.3397649 C0.0390213065,11.5460845 0,11.7681647 0,12 L0,12.9906311 C0,13.5480902 0.455278158,14 1.00355521,14 L2.03411373,14 C5.64373704,16.9485252 13.67361,19 23,19 C32.32639,19 40.356263,16.9485252 43.9658814,14.0000003 L44.9964448,14 C45.550693,14 46,13.5566468 46,12.9906311 L46,12 C46,11.7692876 45.9608124,11.5476994 45.8887118,11.341489 C45.9623217,11.0646753 46,10.7839638 46,10.5 C46,5.80557963 35.7025492,0 23,0 C10.2974508,0 0,5.80557963 0,10.5 C0,10.7833743 0.0375220536,11.0635098 0.110830193,11.3397649 Z" id="path-7"></path>
        <rect id="path-9" x="0" y="23" width="50" height="6" rx="1"></rect>
        <filter x="-2.0%" y="-16.7%" width="104.0%" height="133.3%" filterUnits="objectBoundingBox" id="filter-10">
            <feOffset dx="0" dy="-2" in="SourceAlpha" result="shadowOffsetInner1"></feOffset>
            <feComposite in="shadowOffsetInner1" in2="SourceAlpha" operator="arithmetic" k2="-1" k3="1" result="shadowInnerInner1"></feComposite>
            <feColorMatrix values="0 0 0 0 0   0 0 0 0 0   0 0 0 0 0  0 0 0 0.0301743659 0" type="matrix" in="shadowInnerInner1"></feColorMatrix>
        </filter>
        <rect id="path-11" x="0" y="16" width="50" height="6" rx="1"></rect>
        <filter x="-2.0%" y="-16.7%" width="104.0%" height="133.3%" filterUnits="objectBoundingBox" id="filter-12">
            <feOffset dx="0" dy="-2" in="SourceAlpha" result="shadowOffsetInner1"></feOffset>
            <feComposite in="shadowOffsetInner1" in2="SourceAlpha" operator="arithmetic" k2="-1" k3="1" result="shadowInnerInner1"></feComposite>
            <feColorMatrix values="0 0 0 0 0   0 0 0 0 0   0 0 0 0 0  0 0 0 0.0301743659 0" type="matrix" in="shadowInnerInner1"></feColorMatrix>
        </filter>
        <path d="M76.5555556,29 L74.3437582,30.9906176 C72.4970515,32.6526536 68.9865359,34 66.4902482,34 L15.5097518,34 C13.0190847,34 9.50289896,32.6526091 7.65624181,30.9906176 L5.44444444,29 L2.00661467,29 C0.898391991,29 0,28.1122704 0,27 L0,26.0093689 C0,25.4519098 0.441182375,25 1.00719922,25 L80.9928008,25 C81.5490616,25 82,25.4433532 82,26.0093689 L82,27 C82,28.1045695 81.1070486,29 79.9933853,29 L76.5555556,29 Z" id="path-13"></path>
    </defs>
    <g id="Page-1" stroke="none" stroke-width="1" fill="none" fill-rule="evenodd">
        <g id="home" transform="translate(-428.000000, -912.000000)">
            <g id="catégories" transform="translate(428.000000, 552.000000)">
                <g id="item" transform="translate(0.000000, 360.000000)">
                    <g id="illustration">
                        <mask id="mask-2" fill="white">
                            <use xlink:href="#path-1"></use>
                        </mask>
                        <g id="bg">
                            <use fill="black" fill-opacity="1" filter="url(#filter-3)" xlink:href="#path-1"></use>
                            <use fill="#9F57B6" fill-rule="evenodd" xlink:href="#path-1"></use>
                        </g>
                        <rect id="shadow" fill="#874B9C" mask="url(#mask-2)" x="10" y="112" width="90" height="3" rx="1.5"></rect>
                        <g id="Group-12" mask="url(#mask-2)">
                            <g transform="translate(28.000000, 45.000000) rotate(107.000000) translate(-28.000000, -45.000000) translate(22.000000, 34.000000)">
                                <path d="M8,4 L8,10 L4,10 L4,4 C2.8954305,4 2,3.1045695 2,2 C2,0.8954305 2.8954305,-2.13e-14 4,-2.13e-14 C5.1045695,-2.13e-14 6,0.8954305 6,2 C6,0.8954305 6.8954305,-2.13e-14 8,-2.13e-14 C9.1045695,-2.13e-14 10,0.8954305 10,2 C10,3.1045695 9.1045695,4 8,4 Z" id="Combined-Shape" fill="#FCE9BC"></path>
                                <path d="M6,22 C9.3137085,22 12,19.3137085 12,16 C12,12.6862915 9.3137085,6 6,6 C2.6862915,6 3.6e-15,12.6862915 3.6e-15,16 C3.6e-15,19.3137085 2.6862915,22 6,22 Z" id="Oval-24" fill="#DD9831"></path>
                            </g>
                        </g>
                        <g id="Group-12" mask="url(#mask-2)">
                            <g transform="translate(60.000000, 45.000000) rotate(107.000000) translate(-60.000000, -45.000000) translate(54.000000, 34.000000)">
                                <path d="M8,4 L8,10 L4,10 L4,4 C2.8954305,4 2,3.1045695 2,2 C2,0.8954305 2.8954305,-1.42e-14 4,-1.42e-14 C5.1045695,-1.42e-14 6,0.8954305 6,2 C6,0.8954305 6.8954305,-1.42e-14 8,-1.42e-14 C9.1045695,-1.42e-14 10,0.8954305 10,2 C10,3.1045695 9.1045695,4 8,4 Z" id="Combined-Shape" fill="#FCE9BC"></path>
                                <path d="M6,22 C9.3137085,22 12,19.3137085 12,16 C12,12.6862915 9.3137085,6 6,6 C2.6862915,6 7.1e-15,12.6862915 7.1e-15,16 C7.1e-15,19.3137085 2.6862915,22 6,22 Z" id="Oval-24" fill="#A77A37"></path>
                            </g>
                        </g>
                        <g id="Group-12" mask="url(#mask-2)">
                            <g transform="translate(53.492841, 43.415364) scale(-1, 1) rotate(107.000000) translate(-53.492841, -43.415364) translate(40.992841, 23.415364)">
                                <path d="M21,22 L21,28 L17,28 L17,22 C15.8954305,22 15,21.1045695 15,20 C15,18.8954305 15.8954305,18 17,18 C18.1045695,18 19,18.8954305 19,20 C19,18.8954305 19.8954305,18 21,18 C22.1045695,18 23,18.8954305 23,20 C23,21.1045695 22.1045695,22 21,22 Z" id="Combined-Shape" fill="#FCE9BC"></path>
                                <path d="M19,40 C22.3137085,40 25,37.3137085 25,34 C25,30.6862915 22.3137085,24 19,24 C15.6862915,24 13,30.6862915 13,34 C13,37.3137085 15.6862915,40 19,40 Z" id="Oval-24" fill="#DD9831"></path>
                                <g id="Group-12" stroke-width="1" fill="none" transform="translate(12.081153, 13.052461) scale(-1, 1) rotate(145.000000) translate(-12.081153, -13.052461) translate(6.081153, 2.052461)">
                                    <path d="M8,4 L8,10 L4,10 L4,4 C2.8954305,4 2,3.1045695 2,2 C2,0.8954305 2.8954305,3.02e-14 4,3.02e-14 C5.1045695,3.02e-14 6,0.8954305 6,2 C6,0.8954305 6.8954305,3.02e-14 8,3.02e-14 C9.1045695,3.02e-14 10,0.8954305 10,2 C10,3.1045695 9.1045695,4 8,4 Z" id="Combined-Shape" fill="#FCE9BC"></path>
                                    <path d="M6,22 C9.3137085,22 12,19.3137085 12,16 C12,12.6862915 9.3137085,6 6,6 C2.6862915,6 -5.3e-15,12.6862915 -5.3e-15,16 C-5.3e-15,19.3137085 2.6862915,22 6,22 Z" id="Oval-24" fill="#BC7D1F"></path>
                                </g>
                            </g>
                        </g>
                        <g id="Group-12" mask="url(#mask-2)">
                            <g transform="translate(33.000000, 45.000000) scale(-1, 1) rotate(107.000000) translate(-33.000000, -45.000000) translate(27.000000, 34.000000)">
                                <path d="M8,4 L8,10 L4,10 L4,4 C2.8954305,4 2,3.1045695 2,2 C2,0.8954305 2.8954305,1.8e-15 4,1.8e-15 C5.1045695,1.8e-15 6,0.8954305 6,2 C6,0.8954305 6.8954305,1.8e-15 8,1.8e-15 C9.1045695,1.8e-15 10,0.8954305 10,2 C10,3.1045695 9.1045695,4 8,4 Z" id="Combined-Shape" fill="#FCE9BC"></path>
                                <path d="M6,22 C9.3137085,22 12,19.3137085 12,16 C12,12.6862915 9.3137085,6 6,6 C2.6862915,6 2.13e-14,12.6862915 2.13e-14,16 C2.13e-14,19.3137085 2.6862915,22 6,22 Z" id="Oval-24" fill="#D48E26"></path>
                            </g>
                        </g>
                        <g id="Group-12" mask="url(#mask-2)">
                            <g transform="translate(38.000000, 44.000000)">
                                <path d="M8,4 L8,10 L4,10 L4,4 C2.8954305,4 2,3.1045695 2,2 C2,0.8954305 2.8954305,0 4,0 C5.1045695,0 6,0.8954305 6,2 C6,0.8954305 6.8954305,0 8,0 C9.1045695,0 10,0.8954305 10,2 C10,3.1045695 9.1045695,4 8,4 Z" id="Combined-Shape" fill="#FCE9BC"></path>
                                <path d="M6,22 C9.3137085,22 12,19.3137085 12,16 C12,12.6862915 9.3137085,6 6,6 C2.6862915,6 0,12.6862915 0,16 C0,19.3137085 2.6862915,22 6,22 Z" id="Oval-24" fill="#DD9831"></path>
                            </g>
                        </g>
                        <g id="Group-12" mask="url(#mask-2)">
                            <g transform="translate(31.000000, 43.000000) rotate(-45.000000) translate(-31.000000, -43.000000) translate(25.000000, 32.000000)">
                                <path d="M8,4 L8,10 L4,10 L4,4 C2.8954305,4 2,3.1045695 2,2 C2,0.8954305 2.8954305,-3.55e-14 4,-3.55e-14 C5.1045695,-3.55e-14 6,0.8954305 6,2 C6,0.8954305 6.8954305,-3.55e-14 8,-3.55e-14 C9.1045695,-3.55e-14 10,0.8954305 10,2 C10,3.1045695 9.1045695,4 8,4 Z" id="Combined-Shape" fill="#FCE9BC"></path>
                                <path d="M6,22 C9.3137085,22 12,19.3137085 12,16 C12,12.6862915 9.3137085,6 6,6 C2.6862915,6 -1.07e-14,12.6862915 -1.07e-14,16 C-1.07e-14,19.3137085 2.6862915,22 6,22 Z" id="Oval-24" fill="#DD9831"></path>
                            </g>
                        </g>
                        <g id="Group-11" mask="url(#mask-2)">
                            <g transform="translate(16.000000, 43.000000)">
                                <mask id="mask-5" fill="white">
                                    <use xlink:href="#path-4"></use>
                                </mask>
                                <use id="Rectangle-44" stroke="none" fill="#FFFFFF" fill-rule="evenodd" xlink:href="#path-4"></use>
                                <rect id="Rectangle-47" stroke="none" fill="#F64848" fill-rule="evenodd" mask="url(#mask-5)" x="-3" y="10" width="73" height="47"></rect>
                                <circle id="Oval-23" stroke="none" fill="#FFFFFF" fill-rule="evenodd" mask="url(#mask-5)" cx="5" cy="32" r="9"></circle>
                                <circle id="Oval-23" stroke="none" fill="#FFFFFF" fill-rule="evenodd" mask="url(#mask-5)" cx="7" cy="53" r="14"></circle>
                                <g id="Rectangle-48" stroke="none" fill="none" mask="url(#mask-5)" fill-rule="evenodd">
                                    <use fill="#D8D8D8" xlink:href="#path-6"></use>
                                    <use fill="#FFFFFF" xlink:href="#path-6"></use>
                                </g>
                            </g>
                        </g>
                        <rect id="Rectangle-45" fill="#FFFFFF" mask="url(#mask-2)" x="14" y="43" width="66" height="2" rx="1"></rect>
                        <rect id="Rectangle-46" fill-opacity="0.107846467" fill="#9F57B6" mask="url(#mask-2)" x="16" y="45" width="68" height="2"></rect>
                        <g id="hamburger" mask="url(#mask-2)">
                            <g transform="translate(46.000000, 76.000000)">
                                <path d="M2,30.990778 C2,30.4435864 2.45527816,30 3.00355521,30 L46.9964448,30 C47.550693,30 48,30.4509752 48,30.990778 L48,34.0020869 C48,35.1055038 47.1017583,36 45.9938589,36 L4.0061411,36 C2.89817996,36 2,35.1017394 2,34.0020869 L2,30.990778 Z" id="Rectangle-39" fill="#D48E26" fill-rule="evenodd"></path>
                                <g id="Group-10" stroke-width="1" fill="none" fill-rule="evenodd" transform="translate(2.000000, 0.000000)">
                                    <mask id="mask-8" fill="white">
                                        <use xlink:href="#path-7"></use>
                                    </mask>
                                    <use id="Combined-Shape" fill="#DD9831" xlink:href="#path-7"></use>
                                    <circle id="Oval-22" fill="#FCE9BC" mask="url(#mask-8)" cx="24.5" cy="1.5" r="1"></circle>
                                    <circle id="Oval-22" fill="#FCE9BC" mask="url(#mask-8)" cx="16.5" cy="3.5" r="1"></circle>
                                    <circle id="Oval-22" fill="#FCE9BC" mask="url(#mask-8)" cx="30.5" cy="4.5" r="1"></circle>
                                    <circle id="Oval-22" fill="#FCE9BC" mask="url(#mask-8)" cx="22.5" cy="6.5" r="1"></circle>
                                    <circle id="Oval-22" fill="#FCE9BC" mask="url(#mask-8)" cx="37.5" cy="6.5" r="1"></circle>
                                    <rect id="Rectangle-42" fill="#D48E26" mask="url(#mask-8)" x="0" y="9" width="46" height="5"></rect>
                                </g>
                                <rect id="Rectangle-40" fill="#FFAF3A" fill-rule="evenodd" x="2" y="22" width="46" height="1"></rect>
                                <path d="M33.7358021,29 L29.2642024,29 C28.3132209,28.4021984 26.5357758,28 24.5,28 C22.4642242,28 20.6867791,28.4021984 19.735803,28.9999994 L15.2641979,29 C14.313222,28.4021986 12.5357765,28 10.5,28 C8.46422352,28 6.68677798,28.4021986 5.73580207,29 L2,29 L2,30 L5,30 C5,31.1045695 10.5,32 10.5,32 C10.5,32 16,31.1045695 16,30 L19,30 C19,31.1045695 24.5,32 24.5,32 C24.5,32 30,31.1045695 30,30 L33,30 C33,31.1045695 38.5,32 38.5,32 C38.5,32 44,31.1045695 44,30 L48,30 L48,29 L43.2641979,29 C42.313222,28.4021986 40.5357765,28 38.5,28 C36.4642235,28 34.686778,28.4021986 33.7358021,29 Z" id="Combined-Shape" fill="#99D22A" fill-rule="evenodd"></path>
                                <path d="M33.7358021,14 L29.2642024,14 C28.3132209,13.4021984 26.5357758,13 24.5,13 C22.4642242,13 20.6867791,13.4021984 19.735803,13.9999994 L15.2641979,14 C14.313222,13.4021986 12.5357765,13 10.5,13 C8.46422352,13 6.68677798,13.4021986 5.73580207,14 L2,14 L2,15 L5,15 C5,16.1045695 10.5,17 10.5,17 C10.5,17 16,16.1045695 16,15 L19,15 C19,16.1045695 24.5,17 24.5,17 C24.5,17 30,16.1045695 30,15 L33,15 C33,16.1045695 38.5,17 38.5,17 C38.5,17 44,16.1045695 44,15 L48,15 L48,14 L43.2641979,14 C42.313222,13.4021986 40.5357765,13 38.5,13 C36.4642235,13 34.686778,13.4021986 33.7358021,14 Z" id="Combined-Shape" fill="#72A115" fill-rule="evenodd"></path>
                                <rect id="Rectangle-43" fill="#EF5045" fill-rule="evenodd" x="3" y="15" width="14" height="1"></rect>
                                <rect id="Rectangle-43" fill="#EF5045" fill-rule="evenodd" x="14" y="15" width="14" height="1"></rect>
                                <rect id="Rectangle-43" fill="#EF5045" fill-rule="evenodd" x="33" y="15" width="14" height="1"></rect>
                                <rect id="Rectangle-43" fill="#EF5045" fill-rule="evenodd" x="23" y="15" width="14" height="1"></rect>
                                <g id="Rectangle-39" fill="none">
                                    <use fill="#84602F" fill-rule="evenodd" xlink:href="#path-9"></use>
                                    <use fill="black" fill-opacity="1" filter="url(#filter-10)" xlink:href="#path-9"></use>
                                </g>
                                <polygon id="Triangle-2" fill="#FFAF3A" fill-rule="evenodd" transform="translate(34.000000, 25.000000) scale(1, -1) translate(-34.000000, -25.000000) " points="34 22 45 28 23 28"></polygon>
                                <g id="Rectangle-39" fill="none">
                                    <use fill="#84602F" fill-rule="evenodd" xlink:href="#path-11"></use>
                                    <use fill="black" fill-opacity="1" filter="url(#filter-12)" xlink:href="#path-11"></use>
                                </g>
                            </g>
                        </g>
                        <g id="spaghetti" mask="url(#mask-2)">
                            <g transform="translate(14.000000, 78.000000)">
                                <g id="spageti" stroke="none" stroke-width="1" fill="none" fill-rule="evenodd" transform="translate(26.000000, 6.000000)">
                                    <circle id="spaghetti" fill="#FCE9BC" cx="9" cy="9" r="9"></circle>
                                    <circle id="spaghetti" fill="#EDD18D" cx="9" cy="9" r="6"></circle>
                                    <circle id="spaghetti" fill="#FCE9BC" cx="9" cy="9" r="4"></circle>
                                    <circle id="spaghetti" fill="#EDD18D" cx="9" cy="10" r="2"></circle>
                                </g>
                                <circle id="Oval-19" stroke="none" fill="#F64848" fill-rule="evenodd" cx="27" cy="11" r="3"></circle>
                                <g id="spageti" stroke="none" stroke-width="1" fill="none" fill-rule="evenodd" transform="translate(38.000000, 4.000000)">
                                    <circle id="spaghetti" fill="#FCE9BC" cx="9" cy="9" r="9"></circle>
                                    <circle id="spaghetti" fill="#EDD18D" cx="9" cy="9" r="6"></circle>
                                    <circle id="spaghetti" fill="#FCE9BC" cx="9" cy="9" r="4"></circle>
                                    <circle id="spaghetti" fill="#EDD18D" cx="9" cy="10" r="2"></circle>
                                </g>
                                <path d="M34.0247793,2.02477928 C33.8756187,3.58873719 34.3998698,5.20480445 35.5975327,6.40246731 C36.7951956,7.60013017 38.4112628,8.1243813 39.9752207,7.97522072 C40.1243813,6.41126281 39.6001302,4.79519555 38.4024673,3.59753269 C37.2048044,2.39986983 35.5887372,1.8756187 34.0247793,2.02477928 L34.0247793,2.02477928 Z" id="leaf" stroke="none" fill="#88C11A" fill-rule="evenodd"></path>
                                <path d="M5.02477928,21.0247793 C4.8756187,22.5887372 5.39986983,24.2048044 6.59753269,25.4024673 C7.79519555,26.6001302 9.41126281,27.1243813 10.9752207,26.9752207 C11.1243813,25.4112628 10.6001302,23.7951956 9.40246731,22.5975327 C8.20480445,21.3998698 6.58873719,20.8756187 5.02477928,21.0247793 L5.02477928,21.0247793 Z" id="leaf" stroke="none" fill="#88C11A" fill-rule="evenodd"></path>
                                <path d="M70.0247793,23.0247793 C69.8756187,24.5887372 70.3998698,26.2048044 71.5975327,27.4024673 C72.7951956,28.6001302 74.4112628,29.1243813 75.9752207,28.9752207 C76.1243813,27.4112628 75.6001302,25.7951956 74.4024673,24.5975327 C73.2048044,23.3998698 71.5887372,22.8756187 70.0247793,23.0247793 L70.0247793,23.0247793 Z" id="leaf" stroke="none" fill="#88C11A" fill-rule="evenodd" transform="translate(73.000000, 26.000000) scale(-1, 1) translate(-73.000000, -26.000000) "></path>
                                <path d="M39.033039,0.0330390455 C38.8341583,2.11831625 39.5331598,4.2730726 41.1300436,5.86995641 C42.7269274,7.46684022 44.8816838,8.16584174 46.966961,7.96696095 C47.1658417,5.88168375 46.4668402,3.7269274 44.8699564,2.13004359 C43.2730726,0.533159779 41.1183162,-0.165841737 39.033039,0.0330390455 L39.033039,0.0330390455 Z" id="leaf" stroke="none" fill="#72A115" fill-rule="evenodd" transform="translate(43.000000, 4.000000) scale(-1, 1) translate(-43.000000, -4.000000) "></path>
                                <rect id="Rectangle-38" stroke="none" fill="#F3DA9F" fill-rule="evenodd" transform="translate(33.000000, 16.000000) rotate(105.000000) translate(-33.000000, -16.000000) " x="28" y="11" width="10" height="10" rx="5"></rect>
                                <circle id="Oval-19" stroke="none" fill="#F64848" fill-rule="evenodd" cx="46" cy="14" r="3"></circle>
                                <g id="spageti" stroke="none" stroke-width="1" fill="none" fill-rule="evenodd" transform="translate(16.000000, 10.000000)">
                                    <circle id="spaghetti" fill="#FCE9BC" cx="9" cy="9" r="9"></circle>
                                    <circle id="spaghetti" fill="#EDD18D" cx="9" cy="9" r="6"></circle>
                                    <circle id="spaghetti" fill="#FCE9BC" cx="9" cy="9" r="4"></circle>
                                    <circle id="spaghetti" fill="#EDD18D" cx="9" cy="10" r="2"></circle>
                                </g>
                                <g id="spageti" stroke="none" stroke-width="1" fill="none" fill-rule="evenodd" transform="translate(10.000000, 15.000000)">
                                    <circle id="spaghetti" fill="#FCE9BC" cx="9" cy="9" r="9"></circle>
                                    <circle id="spaghetti" fill="#EDD18D" cx="9" cy="9" r="6"></circle>
                                    <circle id="spaghetti" fill="#FCE9BC" cx="9" cy="9" r="4"></circle>
                                    <circle id="spaghetti" fill="#EDD18D" cx="9" cy="10" r="2"></circle>
                                </g>
                                <rect id="Rectangle-38" stroke="none" fill="#F3DA9F" fill-rule="evenodd" transform="translate(24.000000, 23.000000) rotate(28.000000) translate(-24.000000, -23.000000) " x="19" y="18" width="10" height="10" rx="5"></rect>
                                <circle id="Oval-19" stroke="none" fill="#F64848" fill-rule="evenodd" cx="22" cy="26" r="3"></circle>
                                <g id="spageti" stroke="none" stroke-width="1" fill="none" fill-rule="evenodd" transform="translate(22.000000, 15.000000)">
                                    <circle id="spaghetti" fill="#FCE9BC" cx="9" cy="10" r="9"></circle>
                                    <circle id="Oval-19" fill="#F64848" cx="12" cy="3" r="3"></circle>
                                    <circle id="spaghetti" fill="#EDD18D" cx="9" cy="10" r="6"></circle>
                                    <circle id="spaghetti" fill="#FCE9BC" cx="9" cy="10" r="4"></circle>
                                    <circle id="spaghetti" fill="#EDD18D" cx="9" cy="11" r="2"></circle>
                                </g>
                                <g id="spageti" stroke="none" stroke-width="1" fill="none" fill-rule="evenodd" transform="translate(54.000000, 16.000000)">
                                    <circle id="spaghetti" fill="#FCE9BC" cx="9" cy="9" r="9"></circle>
                                    <circle id="spaghetti" fill="#EDD18D" cx="9" cy="9" r="6"></circle>
                                    <circle id="spaghetti" fill="#FCE9BC" cx="9" cy="9" r="4"></circle>
                                    <circle id="spaghetti" fill="#EDD18D" cx="9" cy="10" r="2"></circle>
                                </g>
                                <rect id="Rectangle-38" stroke="none" fill="#F3DA9F" fill-rule="evenodd" transform="translate(60.000000, 26.000000) rotate(28.000000) translate(-60.000000, -26.000000) " x="55" y="21" width="10" height="10" rx="2"></rect>
                                <g id="spageti" stroke="none" stroke-width="1" fill="none" fill-rule="evenodd" transform="translate(47.000000, 8.000000)">
                                    <circle id="spaghetti" fill="#FCE9BC" cx="9" cy="9" r="9"></circle>
                                    <circle id="spaghetti" fill="#EDD18D" cx="9" cy="9" r="6"></circle>
                                    <circle id="spaghetti" fill="#FCE9BC" cx="9" cy="9" r="4"></circle>
                                    <circle id="spaghetti" fill="#EDD18D" cx="9" cy="10" r="2"></circle>
                                </g>
                                <circle id="Oval-19" stroke="none" fill="#F64848" fill-rule="evenodd" cx="59" cy="20" r="3"></circle>
                                <g id="spageti" stroke="none" stroke-width="1" fill="none" fill-rule="evenodd" transform="translate(32.000000, 12.000000)">
                                    <circle id="spaghetti" fill="#FCE9BC" cx="9" cy="9" r="9"></circle>
                                    <circle id="spaghetti" fill="#EDD18D" cx="9" cy="9" r="6"></circle>
                                    <circle id="spaghetti" fill="#FCE9BC" cx="9" cy="9" r="4"></circle>
                                    <circle id="spaghetti" fill="#EDD18D" cx="9" cy="10" r="2"></circle>
                                </g>
                                <g id="spageti" stroke="none" stroke-width="1" fill="none" fill-rule="evenodd" transform="translate(42.000000, 14.000000)">
                                    <circle id="spaghetti" fill="#FCE9BC" cx="9" cy="9" r="9"></circle>
                                    <circle id="spaghetti" fill="#EDD18D" cx="9" cy="9" r="6"></circle>
                                    <circle id="spaghetti" fill="#FCE9BC" cx="9" cy="9" r="4"></circle>
                                    <circle id="spaghetti" fill="#EDD18D" cx="9" cy="10" r="2"></circle>
                                </g>
                                <rect id="Rectangle-38" stroke="none" fill="#F3DA9F" fill-rule="evenodd" transform="translate(41.000000, 22.000000) rotate(-38.000000) translate(-41.000000, -22.000000) " x="36" y="17" width="10" height="10" rx="5"></rect>
                                <circle id="Oval-19" stroke="none" fill="#F64848" fill-rule="evenodd" cx="50" cy="25" r="3"></circle>
                                <g id="spageti" stroke="none" stroke-width="1" fill="none" fill-rule="evenodd" transform="translate(35.000000, 19.000000)">
                                    <path d="M17,9 C17,4.02943725 13.1944204,0 8.5,0 C3.80557963,0 0,4.02943725 0,9 C0,13.9705627 17,13.9705627 17,9 Z" id="spaghetti" fill="#FCE9BC"></path>
                                    <ellipse id="spaghetti" fill="#EDD18D" cx="8.5" cy="9" rx="5.66666667" ry="6"></ellipse>
                                    <ellipse id="spaghetti" fill="#FCE9BC" cx="8.5" cy="9" rx="3.77777778" ry="4"></ellipse>
                                    <ellipse id="spaghetti" fill="#EDD18D" cx="8.5" cy="10" rx="1.88888889" ry="2"></ellipse>
                                </g>
                                <mask id="mask-14" fill="white">
                                    <use xlink:href="#path-13"></use>
                                </mask>
                                <use id="Combined-Shape" stroke="none" fill="#FFFFFF" fill-rule="evenodd" xlink:href="#path-13"></use>
                                <rect id="Rectangle-37" stroke="none" fill-opacity="0.107846467" fill="#9F57B6" fill-rule="evenodd" mask="url(#mask-14)" x="-1" y="29" width="76" height="2"></rect>
                            </g>
                        </g>
                    </g>
                </g>
            </g>
        </g>
    </g>
</svg>