<?xml version="1.0" encoding="UTF-8"?>
<svg width="15px" height="21px" viewBox="0 0 15 21" version="1.1" xmlns="http://www.w3.org/2000/svg" xmlns:xlink="http://www.w3.org/1999/xlink">
    <!-- Generator: Sketch 45.2 (43514) - http://www.bohemiancoding.com/sketch -->
    <title>share</title>
    <desc>Created with Sketch.</desc>
    <defs></defs>
    <g id="Page-1" stroke="none" stroke-width="1" fill="none" fill-rule="evenodd">
        <g id="result" transform="translate(-503.000000, -293.000000)" fill="#A4AAB3">
            <g id="actions" transform="translate(428.000000, 282.000000)">
                <g id="cta-secondary" transform="translate(56.000000, 0.000000)">
                    <g id="share" transform="translate(19.000000, 11.000000)">
                        <rect id="Rectangle-18" x="0" y="0" width="2" height="21" rx="1"></rect>
                        <path d="M3.08881468,11.2179056 C4.17120445,11.0360641 5.82712968,11.0357843 6.91118532,11.2179056 L8.63681131,11.5078108 C9.35655847,11.6287283 10.6421482,11.6289456 11.3631887,11.5078108 L13.0888147,11.2179056 C13.1847424,11.2017898 13.3333333,11.0242106 13.3333333,10.9150787 L13.3333333,2.82317351 L11.9111853,3.06209438 C10.8287956,3.24393586 9.17287032,3.24421572 8.08881468,3.06209438 L6.36318869,2.77218921 C5.64344153,2.65127169 4.35785178,2.65105441 3.63681131,2.77218921 L1.91118532,3.06209438 C1.8152576,3.07821023 1.66666667,3.25578942 1.66666667,3.36492127 L1.66666667,11.4568265 L3.08881468,11.2179056 Z M0,3.36492127 C0,2.43436495 0.73776722,1.55605511 1.637187,1.40495258 L3.362813,1.11504742 C4.26700641,0.963142923 5.73776722,0.963944893 6.637187,1.11504742 L8.362813,1.40495258 C9.26700641,1.55685708 10.7377672,1.55605511 11.637187,1.40495258 L13.362813,1.11504742 C14.2670064,0.963142923 15,1.59353051 15,2.52492127 L15,10.9150787 C15,11.8456351 14.2622328,12.7239449 13.362813,12.8750474 L11.637187,13.1649526 C10.7329936,13.3168571 9.26223278,13.3160551 8.362813,13.1649526 L6.637187,12.8750474 C5.73299359,12.7231429 4.26223278,12.7239449 3.362813,12.8750474 L1.637187,13.1649526 C0.732993589,13.3168571 0,12.6864695 0,11.7550787 L0,3.36492127 Z" id="Rectangle-7" fill-rule="nonzero"></path>
                    </g>
                </g>
            </g>
        </g>
    </g>
</svg>