<?xml version="1.0" encoding="UTF-8"?>
<svg width="20px" height="20px" viewBox="0 0 20 20" version="1.1" xmlns="http://www.w3.org/2000/svg" xmlns:xlink="http://www.w3.org/1999/xlink">
    <!-- Generator: Sketch 45.2 (43514) - http://www.bohemiancoding.com/sketch -->
    <title>Combined Shape</title>
    <desc>Created with Sketch.</desc>
    <defs></defs>
    <g id="Page-1" stroke="none" stroke-width="1" fill="none" fill-rule="evenodd">
        <g id="categorie" transform="translate(-440.000000, -187.000000)" fill="#F64848">
            <g id="items" transform="translate(439.000000, 187.000000)">
                <g id="item" transform="translate(1.000000, 0.000000)">
                    <path d="M0,10 C0,4.4771525 4.47593818,0 10,0 C15.5228475,0 20,4.47593818 20,10 C20,15.5228475 15.5240618,20 10,20 C4.4771525,20 0,15.5240618 0,10 Z M4,10 C4,10.5561352 4.44882258,11 5.00247329,11 L14.9975267,11 C15.544239,11 16,10.5522847 16,10 C16,9.44386482 15.5511774,9 14.9975267,9 L5.00247329,9 C4.45576096,9 4,9.44771525 4,10 Z" id="Combined-Shape"></path>
                </g>
            </g>
        </g>
    </g>
</svg>