<?xml version="1.0" encoding="UTF-8"?>
<svg width="20px" height="20px" viewBox="0 0 20 20" version="1.1" xmlns="http://www.w3.org/2000/svg" xmlns:xlink="http://www.w3.org/1999/xlink">
    <!-- Generator: Sketch 45.2 (43514) - http://www.bohemiancoding.com/sketch -->
    <title>Combined Shape</title>
    <desc>Created with Sketch.</desc>
    <defs></defs>
    <g id="Page-1" stroke="none" stroke-width="1" fill="none" fill-rule="evenodd">
        <g id="categorie" transform="translate(-510.000000, -134.000000)" fill="#000000">
            <g id="hero">
                <g id="tabs" transform="translate(428.000000, 134.000000)">
                    <g id="segmented" transform="translate(15.000000, 0.000000)">
                        <path d="M67,4.99525338 C67,2.23645112 69.236038,0 71.9952534,0 L82.0047466,0 C84.7635489,0 87,2.23603796 87,4.99525338 L87,15.0047466 C87,17.7635489 84.763962,20 82.0047466,20 L71.9952534,20 C69.2364511,20 67,17.763962 67,15.0047466 L67,4.99525338 Z M74.2928932,14.7071068 C74.7019291,15.1161427 75.3716554,15.0938432 75.7525767,14.6585046 L82.7525767,6.65850461 C83.1162587,6.24286798 83.0741412,5.61110536 82.6585046,5.24742331 C82.242868,4.88374125 81.6111054,4.92585876 81.2474233,5.34149539 L74.2474233,13.3414954 L75.7071068,13.2928932 L72.7071068,10.2928932 C72.3165825,9.90236893 71.6834175,9.90236893 71.2928932,10.2928932 C70.9023689,10.6834175 70.9023689,11.3165825 71.2928932,11.7071068 L74.2928932,14.7071068 Z" id="Combined-Shape"></path>
                    </g>
                </g>
            </g>
        </g>
    </g>
</svg>