<?xml version="1.0" encoding="UTF-8"?>
<svg width="16px" height="16px" viewBox="0 0 16 16" version="1.1" xmlns="http://www.w3.org/2000/svg" xmlns:xlink="http://www.w3.org/1999/xlink">
    <!-- Generator: Sketch 45.2 (43514) - http://www.bohemiancoding.com/sketch -->
    <title>instagram</title>
    <desc>Created with Sketch.</desc>
    <defs></defs>
    <g id="Page-1" stroke="none" stroke-width="1" fill="none" fill-rule="evenodd">
        <g id="results" transform="translate(-340.000000, -1102.000000)" fill="#8E8E93">
            <g id="footer" transform="translate(0.000000, 1089.000000)">
                <g id="social" transform="translate(310.000000, 13.000000)">
                    <g id="instagram" transform="translate(30.000000, 0.000000)">
                        <path d="M7.99752381,1.4697505 C10.1330845,1.4697505 10.3857836,1.47798815 11.2292777,1.51632493 C12.0089621,1.55181021 12.4324552,1.6817117 12.7143606,1.79101904 C13.0621021,1.91878172 13.3767026,2.12275916 13.6349978,2.38793219 C13.9006966,2.64571619 14.1050785,2.9596942 14.2330945,3.30674755 C14.3426185,3.58809514 14.4727776,4.01075021 14.5083332,4.78889177 C14.546746,5.6303999 14.555,5.8829157 14.555,8.0142505 C14.555,10.1455853 14.546746,10.3977843 14.5083332,11.2396092 C14.4727776,12.0177508 14.3426185,12.4404059 14.2330945,12.7217535 C13.9640319,13.4178235 13.4127632,13.9680013 12.715313,14.2365315 C12.4334076,14.3458388 12.0099145,14.4757403 11.23023,14.5112256 C10.3870534,14.5495623 10.1340369,14.5578 7.99847619,14.5578 C5.86291547,14.5578 5.60989898,14.5495623 4.76672234,14.5112256 C3.98703791,14.4757403 3.56354482,14.3458388 3.28163938,14.2365315 C2.93389791,14.1087688 2.61929735,13.9047913 2.36100223,13.6396183 C2.09530342,13.3818343 1.89092154,13.0678563 1.76290554,12.720803 C1.65338147,12.4394554 1.52322242,12.0168003 1.48766678,11.2386587 C1.44925399,10.3971506 1.441,10.1446348 1.441,8.0133 C1.441,5.88196521 1.44925399,5.62976623 1.48766678,4.78794127 C1.52322242,4.00979971 1.65338147,3.58714465 1.76290554,3.30579705 C1.89092154,2.9587437 2.09530342,2.64476569 2.36100223,2.38698169 C2.61929735,2.12180866 2.93389791,1.91783122 3.28163938,1.79006854 C3.56354482,1.6807612 3.98703791,1.55085972 4.76672234,1.51537443 C5.60989898,1.47703765 5.86291547,1.4688 7.99847619,1.4688 L7.99752381,1.4697505 Z M7.99840238,0.0307 C5.82634169,0.0307 5.55396109,0.03988812 4.70094632,0.0788584218 C3.84793154,0.117828724 3.26729737,0.253432701 2.75936152,0.450502032 C2.22549554,0.650866172 1.74186627,0.9650789 1.34222049,1.37121502 C0.935279123,1.77006998 0.620443402,2.25274225 0.419681998,2.78555183 C0.222221936,3.29248258 0.0869840148,3.8729183 0.048253906,4.72234415 C0.00952379724,5.57176999 0,5.8455126 0,8.01327525 C0,10.1810379 0.00920633733,10.4528795 0.048253906,11.3042063 C0.0873014747,12.1555332 0.222221936,12.7340679 0.419681998,13.2409987 C0.620525153,13.7735816 0.935356155,14.2560304 1.34222049,14.6547018 C1.74183495,15.0609523 2.22546658,15.3752747 2.75936152,15.5757316 C3.26729737,15.7731178 3.84951884,15.9080881 4.70062886,15.9467416 C5.55173887,15.985395 5.82602423,15.9949 7.99808492,15.9949 C10.1701456,15.9949 10.4425262,15.9857119 11.295541,15.9467416 C12.1485558,15.9077713 12.7276026,15.7731178 13.2355385,15.5757316 C14.310016,15.1610706 15.1594174,14.31335 15.5749005,13.2409987 C15.7726781,12.7340679 15.907916,12.1529985 15.9466461,11.3035727 C15.9853762,10.4541468 15.9949,10.1804042 15.9949,8.01264158 C15.9949,5.84487894 15.9856937,5.57303732 15.9466461,4.72171048 C15.9075985,3.87038364 15.7726781,3.29248258 15.5749005,2.78555183 C15.3740574,2.25296893 15.0592264,1.77052014 14.652362,1.37184868 C14.2528708,0.965522248 13.7693488,0.651092555 13.2355385,0.450502032 C12.7276026,0.253432701 12.1460161,0.118462387 11.2949061,0.079808917 C10.4437961,0.0411554468 10.1695107,0.0316504952 7.99745,0.0316504952 L7.99840238,0.0307 Z" id="Shape"></path>
                        <path d="M7.99745,3.9148 C5.72940983,3.9148 3.8908,5.74978334 3.8908,8.01335 C3.8908,10.2769167 5.72940983,12.1119 7.99745,12.1119 C10.2654902,12.1119 12.1041,10.2769167 12.1041,8.01335 C12.1041,5.74978334 10.2654902,3.9148 7.99745,3.9148 L7.99745,3.9148 Z M7.99745,10.6747 C6.52469987,10.6747 5.3308,9.48315063 5.3308,8.0133 C5.3308,6.54344937 6.52469987,5.3519 7.99745,5.3519 C9.47020013,5.3519 10.6641,6.54344937 10.6641,8.0133 C10.6641,9.48315063 9.47020013,10.6747 7.99745,10.6747 L7.99745,10.6747 Z" id="Shape"></path>
                        <ellipse id="Oval" cx="12.2667" cy="3.7526" rx="1" ry="1"></ellipse>
                    </g>
                </g>
            </g>
        </g>
    </g>
</svg>