<?xml version="1.0" encoding="UTF-8"?>
<svg width="346px" height="54px" viewBox="0 0 346 54" version="1.1" xmlns="http://www.w3.org/2000/svg" xmlns:xlink="http://www.w3.org/1999/xlink">
    <!-- Generator: Sketch 46.2 (44496) - http://www.bohemiancoding.com/sketch -->
    <title>ae-w</title>
    <desc>Created with Sketch.</desc>
    <defs></defs>
    <g id="Page-1" stroke="none" stroke-width="1" fill="none" fill-rule="evenodd">
        <g id="Artboard" transform="translate(-20.000000, -20.000000)">
            <g id="ae-w" transform="translate(20.000000, 20.000000)">
                <text id="par-cocotte" font-family="Radikal-Medium, Radikal" font-size="14" font-weight="400" fill="#FFFFFF">
                    <tspan x="67.788" y="47">par cocotte</tspan>
                </text>
                <text id="Alimentation-Enceint" font-family="Radikal-Medium, Radikal" font-size="27" font-weight="400" fill="#FFFFFF">
                    <tspan x="66" y="33">Alimentation Enceinte</tspan>
                </text>
                <g id="icon">
                    <rect id="bg" fill="#FF0079" x="0" y="0" width="54" height="54" rx="27"></rect>
                    <g id="cocoote" transform="translate(20.162162, 25.135135) scale(-1, 1) translate(-20.162162, -25.135135) translate(5.662162, 13.135135)">
                        <path d="M14.9594595,12.4054054 L25.9054054,12.4054054 C25.9054054,18.4506844 21.0047385,23.3513514 14.9594595,23.3513514 L9.48648649,23.3513514 L9.48648649,23.3513514 C6.46384698,23.3513514 4.01351351,20.9010179 4.01351351,17.8783784 L4.01351351,17.8783784 L4.01351351,17.8783784 L4.01351351,8.75675676 L4.01351351,8.75675676 C4.01351351,5.73411725 6.46384698,3.28378378 9.48648649,3.28378378 L9.48648649,3.28378378 L9.48648649,3.28378378 C12.509126,3.28378378 14.9594595,5.73411725 14.9594595,8.75675676 L14.9594595,12.4054054 Z" id="body" fill="#FFFFFF"></path>
                        <path d="M22.9864865,12.4054054 C22.9864865,10.793331 24.293331,9.48648649 25.9054054,9.48648649 C27.5174798,9.48648649 28.8243243,10.793331 28.8243243,12.4054054 L22.9864865,12.4054054 Z" id="Combined-Shape" fill="#FFB300"></path>
                        <path d="M18.6081081,10.9459459 C18.6081081,9.33387154 19.9149526,8.02702703 21.527027,8.02702703 C23.1391014,8.02702703 24.4459459,9.33387154 24.4459459,10.9459459 L18.6081081,10.9459459 Z" id="Combined-Shape" fill="#FFB300" transform="translate(21.527027, 9.486486) rotate(-90.000000) translate(-21.527027, -9.486486) "></path>
                        <path d="M14.9594595,12.4054054 L22.2567568,12.4054054 C22.2567568,15.6295542 19.6430677,18.2432432 16.4189189,18.2432432 L14.9594595,18.2432432 L14.9594595,12.4054054 Z M12.1904215,12.4054054 L14.9594595,12.4054054 L14.9594595,18.2432432 L14.9594595,18.2432432 C13.076355,18.2432432 11.3818298,17.09996 10.6768477,15.3537978 L10.4987648,14.9127062 L10.4987648,14.9127062 C10.1215673,13.97843 10.5731688,12.9152705 11.507445,12.538073 C11.7244852,12.4504469 11.95636,12.4054054 12.1904215,12.4054054 L12.1904215,12.4054054 Z" id="Combined-Shape" fill-opacity="0.179376132" fill="#FF0079" opacity="0.665591033"></path>
                        <polygon id="Rectangle-8" fill="#F5A623" points="0 8.75675676 4.01351351 8.75675676 4.01351351 12.7702703"></polygon>
                        <path d="M10.0615813,5.06458766 C9.66002018,5.53764381 9.06101307,5.83783784 8.39189189,5.83783784 C7.83085874,5.83783784 7.31911717,5.62679553 6.93172369,5.27976743 C6.6503969,5.60848793 6.24244184,5.83783784 5.83783784,5.83783784 C4.74861355,5.83783784 4.01351351,5.1027378 4.01351351,4.37837838 C4.01351351,3.28915409 4.74861355,2.55405405 5.83783784,2.55405405 C6.03415595,2.55405405 6.23126299,2.60804972 6.41431108,2.70845675 C6.76606629,1.96990107 7.51936908,1.45945946 8.39189189,1.45945946 C8.75066524,1.45945946 9.08928112,1.54576384 9.3881112,1.69874426 C9.85015057,0.696018092 10.8640637,0 12.0405405,0 C13.6526149,0 14.9594595,1.30684451 14.9594595,2.91891892 C14.9594595,4.53099332 13.6526149,5.83783784 12.0405405,5.83783784 C11.276911,5.83783784 10.5817706,5.54460053 10.0615813,5.06458766 Z" id="Combined-Shape" fill="#FFB300"></path>
                        <path d="M6.2027027,15.3243243 C6.71363637,16.031565 6.71363637,16.9197262 6.2027027,17.5135135 C5.54508597,18.0153287 4.59778871,18.0153287 4.01351351,17.5135135 C3.42923832,18.0153287 2.48194105,18.0153287 1.82432432,17.5135135 C1.31339066,16.9197262 1.31339066,16.031565 1.82432432,15.3243243 L4.01351351,13.5 L6.2027027,15.3243243 Z" id="Combined-Shape" fill="#FFB300"></path>
                        <polyline id="eye" stroke="#000000" stroke-width="0.72972973" stroke-linecap="round" stroke-linejoin="round" points="6.2027027 9.48648649 7.66216216 8.02702703 9.12162162 9.48648649"></polyline>
                    </g>
                    <g id="Group-2" transform="translate(35.756757, 22.256757)">
                        <circle id="Oval-8" fill="#FFFFFF" cx="4.37837838" cy="5.47297297" r="3.64864865"></circle>
                        <polyline id="eye" stroke="#000000" stroke-width="0.5" stroke-linecap="round" stroke-linejoin="round" points="5.47297297 3.64864865 5.83783784 3.28378378 6.2027027 3.64864865"></polyline>
                        <polyline id="eye" stroke="#000000" stroke-width="0.5" stroke-linecap="round" stroke-linejoin="round" points="2.55405405 3.64864865 2.91891892 3.28378378 3.28378378 3.64864865"></polyline>
                        <circle id="Oval-8" fill="#FFB300" cx="3.64864865" cy="1.45945946" r="1"></circle>
                        <circle id="Oval-8" fill="#FFB300" cx="4.74324324" cy="1.09459459" r="1.09459459"></circle>
                        <circle id="Oval-8" fill="#FFFFFF" cx="4.37837838" cy="9.48648649" r="4.37837838"></circle>
                        <polygon id="Triangle" fill="#F5A623" transform="translate(4.378378, 5.655405) scale(1, -1) translate(-4.378378, -5.655405) " points="4.37837838 5.10810811 5.47297297 6.2027027 3.28378378 6.2027027"></polygon>
                        <polygon id="Triangle" fill="#FFB300" points="4.37837838 4.01351351 5.47297297 5.10810811 3.28378378 5.10810811"></polygon>
                    </g>
                    <path d="M34.8694465,29.0316087 C34.7343724,29.6889619 34.6621622,30.3036165 34.6621622,30.8310811 C34.6621622,33.9544752 37.1941734,36.4864865 40.3175676,36.4864865 C43.4409617,36.4864865 45.972973,33.9544752 45.972973,30.8310811 C45.972973,30.2354688 45.8808985,29.5286815 45.7102066,28.7747791 L44.1486486,30.6486486 L41.9594595,28.8243243 L40.5,30.6486486 L38.6756757,28.8243243 L36.4864865,30.6486486 L34.8694465,29.0316087 Z" id="Combined-Shape" fill="#FFE1EF"></path>
                </g>
            </g>
        </g>
    </g>
</svg>