<?xml version="1.0" encoding="UTF-8"?>
<svg width="277px" height="54px" viewBox="0 0 277 54" version="1.1" xmlns="http://www.w3.org/2000/svg" xmlns:xlink="http://www.w3.org/1999/xlink">
    <!-- Generator: Sketch 46.2 (44496) - http://www.bohemiancoding.com/sketch -->
    <title>em-b</title>
    <desc>Created with Sketch.</desc>
    <defs></defs>
    <g id="Page-1" stroke="none" stroke-width="1" fill="none" fill-rule="evenodd">
        <g id="Artboard" transform="translate(-20.000000, -420.000000)">
            <g id="em-b" transform="translate(20.000000, 420.000000)">
                <path d="M72.576,39.804 C74.48,39.804 75.782,41.344 75.782,43.472 C75.782,45.586 74.48,47.14 72.576,47.14 C71.54,47.14 70.868,46.748 70.49,46.3 L70.49,50.22 L68.81,50.22 L68.81,39.944 L70.322,39.944 L70.392,40.77 C70.784,40.238 71.512,39.804 72.576,39.804 Z M72.212,41.288 C71.372,41.288 70.854,41.736 70.49,42.338 L70.49,44.606 C70.854,45.208 71.372,45.656 72.212,45.656 C73.304,45.656 74.088,44.802 74.088,43.472 C74.088,42.142 73.304,41.288 72.212,41.288 Z M79.8,39.804 C80.864,39.804 81.578,40.238 81.97,40.77 L82.054,39.944 L83.566,39.944 L83.566,47 L82.054,47 L81.97,46.174 C81.578,46.706 80.864,47.14 79.8,47.14 C77.882,47.14 76.58,45.586 76.58,43.472 C76.58,41.344 77.882,39.804 79.8,39.804 Z M80.164,41.288 C79.072,41.288 78.288,42.142 78.288,43.472 C78.288,44.802 79.072,45.656 80.164,45.656 C81.004,45.656 81.508,45.208 81.886,44.606 L81.886,42.338 C81.508,41.736 81.004,41.288 80.164,41.288 Z M89.278,39.804 C88.27,39.804 87.556,40.322 87.206,40.882 L87.122,39.944 L85.61,39.944 L85.61,47 L87.29,47 L87.29,42.548 C87.738,41.932 88.284,41.484 89.138,41.484 L89.278,41.484 L89.278,39.804 Z M96.726,39.804 C94.556,39.804 93.114,41.344 93.114,43.472 C93.114,45.586 94.57,47.14 96.74,47.14 C98.014,47.14 98.98,46.566 99.61,45.586 L98.406,44.648 C98.07,45.208 97.524,45.67 96.754,45.67 C95.508,45.67 94.822,44.704 94.822,43.472 C94.822,42.226 95.48,41.274 96.74,41.274 C97.524,41.274 98.042,41.722 98.364,42.282 L99.582,41.358 C98.952,40.378 98.014,39.804 96.726,39.804 Z M103.88,39.804 C105.994,39.804 107.548,41.358 107.548,43.486 C107.548,45.6 105.994,47.14 103.88,47.14 C101.766,47.14 100.212,45.6 100.212,43.486 C100.212,41.358 101.766,39.804 103.88,39.804 Z M103.88,41.288 C102.746,41.288 101.92,42.212 101.92,43.486 C101.92,44.746 102.746,45.656 103.88,45.656 C105.014,45.656 105.854,44.746 105.854,43.486 C105.854,42.212 105.014,41.288 103.88,41.288 Z M111.958,39.804 C109.788,39.804 108.346,41.344 108.346,43.472 C108.346,45.586 109.802,47.14 111.972,47.14 C113.246,47.14 114.212,46.566 114.842,45.586 L113.638,44.648 C113.302,45.208 112.756,45.67 111.986,45.67 C110.74,45.67 110.054,44.704 110.054,43.472 C110.054,42.226 110.712,41.274 111.972,41.274 C112.756,41.274 113.274,41.722 113.596,42.282 L114.814,41.358 C114.184,40.378 113.246,39.804 111.958,39.804 Z M119.112,39.804 C121.226,39.804 122.78,41.358 122.78,43.486 C122.78,45.6 121.226,47.14 119.112,47.14 C116.998,47.14 115.444,45.6 115.444,43.486 C115.444,41.358 116.998,39.804 119.112,39.804 Z M119.112,41.288 C117.978,41.288 117.152,42.212 117.152,43.486 C117.152,44.746 117.978,45.656 119.112,45.656 C120.246,45.656 121.086,44.746 121.086,43.486 C121.086,42.212 120.246,41.288 119.112,41.288 Z M126.35,37.578 L124.67,37.578 L124.67,39.944 L123.34,39.944 L123.34,41.372 L124.67,41.372 L124.67,44.508 C124.67,46.216 125.692,47.14 127.302,47.14 C128.002,47.14 128.52,46.944 128.87,46.72 L128.422,45.404 C128.212,45.53 127.904,45.628 127.456,45.628 C126.798,45.628 126.35,45.208 126.35,44.494 L126.35,41.372 L128.478,41.372 L128.478,39.944 L126.35,39.944 L126.35,37.578 Z M132.09,37.578 L130.41,37.578 L130.41,39.944 L129.08,39.944 L129.08,41.372 L130.41,41.372 L130.41,44.508 C130.41,46.216 131.432,47.14 133.042,47.14 C133.742,47.14 134.26,46.944 134.61,46.72 L134.162,45.404 C133.952,45.53 133.644,45.628 133.196,45.628 C132.538,45.628 132.09,45.208 132.09,44.494 L132.09,41.372 L134.218,41.372 L134.218,39.944 L132.09,39.944 L132.09,37.578 Z M138.516,39.804 C140.686,39.804 141.75,41.428 141.75,43.402 L141.75,43.99 L136.766,43.99 C136.808,45.11 137.48,45.726 138.656,45.726 C139.482,45.726 140.084,45.362 140.406,44.914 L141.568,45.866 C140.868,46.706 139.944,47.14 138.642,47.14 C136.458,47.14 135.058,45.6 135.058,43.486 C135.058,41.358 136.486,39.804 138.516,39.804 Z M138.488,41.148 C137.494,41.148 136.822,41.806 136.766,42.786 L140.098,42.786 C140.056,41.82 139.496,41.148 138.488,41.148 Z" id="par-cocotte" fill="#000000"></path>
                <path d="M80.634,13.155 L68.106,13.155 L68.106,33 L80.85,33 L80.85,29.895 L71.481,29.895 L71.481,24.414 L79.473,24.414 L79.473,21.471 L71.481,21.471 L71.481,16.26 L80.634,16.26 L80.634,13.155 Z M90.894,19.122 C88.923,19.122 87.546,19.986 86.79,20.958 L86.655,19.392 L83.739,19.392 L83.739,33 L86.979,33 L86.979,24.09 C87.654,23.064 88.626,22.173 90.057,22.173 C91.731,22.173 92.784,23.415 92.784,25.224 L92.784,33 L96.051,33 L96.051,25.035 C96.051,21.471 94.215,19.122 90.894,19.122 Z M105.393,19.122 C101.208,19.122 98.427,22.092 98.427,26.196 C98.427,30.273 101.235,33.27 105.42,33.27 C107.877,33.27 109.74,32.163 110.955,30.273 L108.633,28.464 C107.985,29.544 106.932,30.435 105.447,30.435 C103.044,30.435 101.721,28.572 101.721,26.196 C101.721,23.793 102.99,21.957 105.42,21.957 C106.932,21.957 107.931,22.821 108.552,23.901 L110.901,22.119 C109.686,20.229 107.877,19.122 105.393,19.122 Z M118.785,19.122 C122.97,19.122 125.022,22.254 125.022,26.061 L125.022,27.195 L115.41,27.195 C115.491,29.355 116.787,30.543 119.055,30.543 C120.648,30.543 121.809,29.841 122.43,28.977 L124.671,30.813 C123.321,32.433 121.539,33.27 119.028,33.27 C114.816,33.27 112.116,30.3 112.116,26.223 C112.116,22.119 114.87,19.122 118.785,19.122 Z M118.731,21.714 C116.814,21.714 115.518,22.983 115.41,24.873 L121.836,24.873 C121.755,23.01 120.675,21.714 118.731,21.714 Z M131.124,19.392 L127.884,19.392 L127.884,33 L131.124,33 L131.124,19.392 Z M129.504,13.047 C128.37,13.047 127.506,13.884 127.506,15.045 C127.506,16.206 128.37,17.043 129.504,17.043 C130.665,17.043 131.529,16.206 131.529,15.045 C131.529,13.884 130.665,13.047 129.504,13.047 Z M142.221,19.122 C140.25,19.122 138.873,19.986 138.117,20.958 L137.982,19.392 L135.066,19.392 L135.066,33 L138.306,33 L138.306,24.09 C138.981,23.064 139.953,22.173 141.384,22.173 C143.058,22.173 144.111,23.415 144.111,25.224 L144.111,33 L147.378,33 L147.378,25.035 C147.378,21.471 145.542,19.122 142.221,19.122 Z M155.1,14.829 L151.86,14.829 L151.86,19.392 L149.295,19.392 L149.295,22.146 L151.86,22.146 L151.86,28.194 C151.86,31.488 153.831,33.27 156.936,33.27 C158.286,33.27 159.285,32.892 159.96,32.46 L159.096,29.922 C158.691,30.165 158.097,30.354 157.233,30.354 C155.964,30.354 155.1,29.544 155.1,28.167 L155.1,22.146 L159.204,22.146 L159.204,19.392 L155.1,19.392 L155.1,14.829 Z M167.493,19.122 C171.678,19.122 173.73,22.254 173.73,26.061 L173.73,27.195 L164.118,27.195 C164.199,29.355 165.495,30.543 167.763,30.543 C169.356,30.543 170.517,29.841 171.138,28.977 L173.379,30.813 C172.029,32.433 170.247,33.27 167.736,33.27 C163.524,33.27 160.824,30.3 160.824,26.223 C160.824,22.119 163.578,19.122 167.493,19.122 Z M167.439,21.714 C165.522,21.714 164.226,22.983 164.118,24.873 L170.544,24.873 C170.463,23.01 169.383,21.714 167.439,21.714 Z M202.512,12.804 L202.404,12.804 L192.765,27.573 L183.099,12.804 L182.991,12.804 L182.991,33 L186.366,33 L186.366,23.253 L192.657,33.216 L192.873,33.216 L199.137,23.253 L199.137,33 L202.512,33 L202.512,12.804 Z M211.611,19.122 C213.663,19.122 215.04,19.959 215.796,20.985 L215.958,19.392 L218.874,19.392 L218.874,33 L215.958,33 L215.796,31.407 C215.04,32.433 213.663,33.27 211.611,33.27 C207.912,33.27 205.401,30.273 205.401,26.196 C205.401,22.092 207.912,19.122 211.611,19.122 Z M212.313,21.984 C210.207,21.984 208.695,23.631 208.695,26.196 C208.695,28.761 210.207,30.408 212.313,30.408 C213.933,30.408 214.905,29.544 215.634,28.383 L215.634,24.009 C214.905,22.848 213.933,21.984 212.313,21.984 Z M229.971,19.122 C228,19.122 226.623,19.986 225.867,20.958 L225.732,19.392 L222.816,19.392 L222.816,33 L226.056,33 L226.056,24.09 C226.731,23.064 227.703,22.173 229.134,22.173 C230.808,22.173 231.861,23.415 231.861,25.224 L231.861,33 L235.128,33 L235.128,25.035 C235.128,21.471 233.292,19.122 229.971,19.122 Z M243.714,19.122 C245.766,19.122 247.17,19.959 247.899,20.985 L248.061,19.392 L250.977,19.392 L250.977,32.541 C250.977,36.861 248.142,39.48 243.822,39.48 C240.879,39.48 238.854,38.319 237.369,36.591 L239.502,34.458 C240.555,35.7 241.878,36.618 243.795,36.618 C246.225,36.618 247.737,34.998 247.737,32.622 L247.737,31.488 C247.008,32.352 245.712,33.135 243.714,33.135 C240.042,33.135 237.531,30.165 237.531,26.115 C237.531,22.065 240.042,19.122 243.714,19.122 Z M244.416,21.984 C242.31,21.984 240.798,23.604 240.798,26.115 C240.798,28.626 242.31,30.273 244.416,30.273 C246.036,30.273 247.035,29.409 247.737,28.248 L247.737,24.009 C247.035,22.848 246.036,21.984 244.416,21.984 Z M260.4,19.122 C264.585,19.122 266.637,22.254 266.637,26.061 L266.637,27.195 L257.025,27.195 C257.106,29.355 258.402,30.543 260.67,30.543 C262.263,30.543 263.424,29.841 264.045,28.977 L266.286,30.813 C264.936,32.433 263.154,33.27 260.643,33.27 C256.431,33.27 253.731,30.3 253.731,26.223 C253.731,22.119 256.485,19.122 260.4,19.122 Z M260.346,21.714 C258.429,21.714 257.133,22.983 257.025,24.873 L263.451,24.873 C263.37,23.01 262.29,21.714 260.346,21.714 Z M276.573,19.122 C274.629,19.122 273.252,20.121 272.577,21.201 L272.415,19.392 L269.499,19.392 L269.499,33 L272.739,33 L272.739,24.414 C273.603,23.226 274.656,22.362 276.303,22.362 L276.573,22.362 L276.573,19.122 Z" id="Enceinte-Manger" fill="#000000"></path>
                <g id="icon">
                    <rect id="bg" fill="#FF0079" x="0" y="0" width="54" height="54" rx="27"></rect>
                    <g id="cocoote" transform="translate(20.162162, 25.135135) scale(-1, 1) translate(-20.162162, -25.135135) translate(5.662162, 13.135135)">
                        <path d="M14.9594595,12.4054054 L25.9054054,12.4054054 C25.9054054,18.4506844 21.0047385,23.3513514 14.9594595,23.3513514 L9.48648649,23.3513514 L9.48648649,23.3513514 C6.46384698,23.3513514 4.01351351,20.9010179 4.01351351,17.8783784 L4.01351351,17.8783784 L4.01351351,17.8783784 L4.01351351,8.75675676 L4.01351351,8.75675676 C4.01351351,5.73411725 6.46384698,3.28378378 9.48648649,3.28378378 L9.48648649,3.28378378 L9.48648649,3.28378378 C12.509126,3.28378378 14.9594595,5.73411725 14.9594595,8.75675676 L14.9594595,12.4054054 Z" id="body" fill="#FFFFFF"></path>
                        <path d="M22.9864865,12.4054054 C22.9864865,10.793331 24.293331,9.48648649 25.9054054,9.48648649 C27.5174798,9.48648649 28.8243243,10.793331 28.8243243,12.4054054 L22.9864865,12.4054054 Z" id="Combined-Shape" fill="#FFB300"></path>
                        <path d="M18.6081081,10.9459459 C18.6081081,9.33387154 19.9149526,8.02702703 21.527027,8.02702703 C23.1391014,8.02702703 24.4459459,9.33387154 24.4459459,10.9459459 L18.6081081,10.9459459 Z" id="Combined-Shape" fill="#FFB300" transform="translate(21.527027, 9.486486) rotate(-90.000000) translate(-21.527027, -9.486486) "></path>
                        <path d="M14.9594595,12.4054054 L22.2567568,12.4054054 C22.2567568,15.6295542 19.6430677,18.2432432 16.4189189,18.2432432 L14.9594595,18.2432432 L14.9594595,12.4054054 Z M12.1904215,12.4054054 L14.9594595,12.4054054 L14.9594595,18.2432432 L14.9594595,18.2432432 C13.076355,18.2432432 11.3818298,17.09996 10.6768477,15.3537978 L10.4987648,14.9127062 L10.4987648,14.9127062 C10.1215673,13.97843 10.5731688,12.9152705 11.507445,12.538073 C11.7244852,12.4504469 11.95636,12.4054054 12.1904215,12.4054054 L12.1904215,12.4054054 Z" id="Combined-Shape" fill-opacity="0.179376132" fill="#FF0079" opacity="0.665591033"></path>
                        <polygon id="Rectangle-8" fill="#F5A623" points="0 8.75675676 4.01351351 8.75675676 4.01351351 12.7702703"></polygon>
                        <path d="M10.0615813,5.06458766 C9.66002018,5.53764381 9.06101307,5.83783784 8.39189189,5.83783784 C7.83085874,5.83783784 7.31911717,5.62679553 6.93172369,5.27976743 C6.6503969,5.60848793 6.24244184,5.83783784 5.83783784,5.83783784 C4.74861355,5.83783784 4.01351351,5.1027378 4.01351351,4.37837838 C4.01351351,3.28915409 4.74861355,2.55405405 5.83783784,2.55405405 C6.03415595,2.55405405 6.23126299,2.60804972 6.41431108,2.70845675 C6.76606629,1.96990107 7.51936908,1.45945946 8.39189189,1.45945946 C8.75066524,1.45945946 9.08928112,1.54576384 9.3881112,1.69874426 C9.85015057,0.696018092 10.8640637,0 12.0405405,0 C13.6526149,0 14.9594595,1.30684451 14.9594595,2.91891892 C14.9594595,4.53099332 13.6526149,5.83783784 12.0405405,5.83783784 C11.276911,5.83783784 10.5817706,5.54460053 10.0615813,5.06458766 Z" id="Combined-Shape" fill="#FFB300"></path>
                        <path d="M6.2027027,15.3243243 C6.71363637,16.031565 6.71363637,16.9197262 6.2027027,17.5135135 C5.54508597,18.0153287 4.59778871,18.0153287 4.01351351,17.5135135 C3.42923832,18.0153287 2.48194105,18.0153287 1.82432432,17.5135135 C1.31339066,16.9197262 1.31339066,16.031565 1.82432432,15.3243243 L4.01351351,13.5 L6.2027027,15.3243243 Z" id="Combined-Shape" fill="#FFB300"></path>
                        <polyline id="eye" stroke="#000000" stroke-width="0.72972973" stroke-linecap="round" stroke-linejoin="round" points="6.2027027 9.48648649 7.66216216 8.02702703 9.12162162 9.48648649"></polyline>
                    </g>
                    <g id="Group-2" transform="translate(35.756757, 22.256757)">
                        <circle id="Oval-8" fill="#FFFFFF" cx="4.37837838" cy="5.47297297" r="3.64864865"></circle>
                        <polyline id="eye" stroke="#000000" stroke-width="0.5" stroke-linecap="round" stroke-linejoin="round" points="5.47297297 3.64864865 5.83783784 3.28378378 6.2027027 3.64864865"></polyline>
                        <polyline id="eye" stroke="#000000" stroke-width="0.5" stroke-linecap="round" stroke-linejoin="round" points="2.55405405 3.64864865 2.91891892 3.28378378 3.28378378 3.64864865"></polyline>
                        <circle id="Oval-8" fill="#FFB300" cx="3.64864865" cy="1.45945946" r="1"></circle>
                        <circle id="Oval-8" fill="#FFB300" cx="4.74324324" cy="1.09459459" r="1.09459459"></circle>
                        <circle id="Oval-8" fill="#FFFFFF" cx="4.37837838" cy="9.48648649" r="4.37837838"></circle>
                        <polygon id="Triangle" fill="#F5A623" transform="translate(4.378378, 5.655405) scale(1, -1) translate(-4.378378, -5.655405) " points="4.37837838 5.10810811 5.47297297 6.2027027 3.28378378 6.2027027"></polygon>
                        <polygon id="Triangle" fill="#FFB300" points="4.37837838 4.01351351 5.47297297 5.10810811 3.28378378 5.10810811"></polygon>
                    </g>
                    <path d="M34.8694465,29.0316087 C34.7343724,29.6889619 34.6621622,30.3036165 34.6621622,30.8310811 C34.6621622,33.9544752 37.1941734,36.4864865 40.3175676,36.4864865 C43.4409617,36.4864865 45.972973,33.9544752 45.972973,30.8310811 C45.972973,30.2354688 45.8808985,29.5286815 45.7102066,28.7747791 L44.1486486,30.6486486 L41.9594595,28.8243243 L40.5,30.6486486 L38.6756757,28.8243243 L36.4864865,30.6486486 L34.8694465,29.0316087 Z" id="Combined-Shape" fill="#FFE1EF"></path>
                </g>
            </g>
        </g>
    </g>
</svg>