<?xml version="1.0" encoding="UTF-8"?>
<svg width="163px" height="54px" viewBox="0 0 163 54" version="1.1" xmlns="http://www.w3.org/2000/svg" xmlns:xlink="http://www.w3.org/1999/xlink">
    <!-- Generator: Sketch 45.2 (43514) - http://www.bohemiancoding.com/sketch -->
    <title>Group 3</title>
    <desc>Created with Sketch.</desc>
    <defs></defs>
    <g id="Page-1" stroke="none" stroke-width="1" fill="none" fill-rule="evenodd">
        <g id="result" transform="translate(-20.000000, -20.000000)">
            <g id="hero">
                <g id="Group-3" transform="translate(20.000000, 20.000000)">
                    <g id="icon">
                        <rect id="bg" fill="#FF0079" x="0" y="0" width="54" height="54" rx="27"></rect>
                        <g id="cocoote" transform="translate(20.162162, 25.135135) scale(-1, 1) translate(-20.162162, -25.135135) translate(5.662162, 13.135135)">
                            <path d="M14.6621622,11.8648649 L25.6621622,11.8648649 C25.6621622,17.9399971 20.7372944,22.8648649 14.6621622,22.8648649 L9.16216216,22.8648649 C6.29314088,22.8648649 3.93719806,20.6681149 3.68458367,17.8648649 L3.66216216,17.8648649 L3.66216216,8.36486486 L3.66216216,8.36486486 C3.66216216,5.32729874 6.12459604,2.86486486 9.16216216,2.86486486 L9.16216216,2.86486486 L9.16216216,2.86486486 C12.1997283,2.86486486 14.6621622,5.32729874 14.6621622,8.36486486 L14.6621622,11.8648649 Z" id="body" fill="#FFFFFF"></path>
                            <path d="M22.9864865,12.4054054 C22.9864865,10.793331 24.293331,9.48648649 25.9054054,9.48648649 C27.5174798,9.48648649 28.8243243,10.793331 28.8243243,12.4054054 L22.9864865,12.4054054 Z" id="Combined-Shape" fill="#FFB300"></path>
                            <path d="M18.6081081,10.9459459 C18.6081081,9.33387154 19.9149526,8.02702703 21.527027,8.02702703 C23.1391014,8.02702703 24.4459459,9.33387154 24.4459459,10.9459459 L18.6081081,10.9459459 Z" id="Combined-Shape" fill="#FFB300" transform="translate(21.527027, 9.486486) rotate(-90.000000) translate(-21.527027, -9.486486) "></path>
                            <path d="M14.9594595,12.4054054 L22.2567568,12.4054054 C22.2567568,15.6295542 19.6430677,18.2432432 16.4189189,18.2432432 L14.9594595,18.2432432 L14.9594595,12.4054054 Z M12.1904215,12.4054054 L14.9594595,12.4054054 L14.9594595,18.2432432 L14.9594595,18.2432432 C13.076355,18.2432432 11.3818298,17.09996 10.6768477,15.3537978 L10.4987648,14.9127062 L10.4987648,14.9127062 C10.1215673,13.97843 10.5731688,12.9152705 11.507445,12.538073 C11.7244852,12.4504469 11.95636,12.4054054 12.1904215,12.4054054 L12.1904215,12.4054054 Z" id="Combined-Shape" fill-opacity="0.179376132" fill="#FF0079" opacity="0.665591033"></path>
                            <polygon id="Rectangle-8" fill="#F5A623" points="0 8.75675676 4.01351351 8.75675676 4.01351351 12.7702703"></polygon>
                            <path d="M10.0615813,5.06458766 C9.66002018,5.53764381 9.06101307,5.83783784 8.39189189,5.83783784 C7.83085874,5.83783784 7.31911717,5.62679553 6.93172369,5.27976743 C6.6503969,5.60848793 6.24244184,5.83783784 5.83783784,5.83783784 C4.74861355,5.83783784 4.01351351,5.1027378 4.01351351,4.37837838 C4.01351351,3.28915409 4.74861355,2.55405405 5.83783784,2.55405405 C6.03415595,2.55405405 6.23126299,2.60804972 6.41431108,2.70845675 C6.76606629,1.96990107 7.51936908,1.45945946 8.39189189,1.45945946 C8.75066524,1.45945946 9.08928112,1.54576384 9.3881112,1.69874426 C9.85015057,0.696018092 10.8640637,0 12.0405405,0 C13.6526149,0 14.9594595,1.30684451 14.9594595,2.91891892 C14.9594595,4.53099332 13.6526149,5.83783784 12.0405405,5.83783784 C11.276911,5.83783784 10.5817706,5.54460053 10.0615813,5.06458766 Z" id="Combined-Shape" fill="#FFB300"></path>
                            <path d="M6.2027027,15.3243243 C6.71363637,16.031565 6.71363637,16.9197262 6.2027027,17.5135135 C5.54508597,18.0153287 4.59778871,18.0153287 4.01351351,17.5135135 C3.42923832,18.0153287 2.48194105,18.0153287 1.82432432,17.5135135 C1.31339066,16.9197262 1.31339066,16.031565 1.82432432,15.3243243 L4.01351351,13.5 L6.2027027,15.3243243 Z" id="Combined-Shape" fill="#FFB300"></path>
                            <polyline id="eye" stroke="#000000" stroke-width="0.72972973" stroke-linecap="round" stroke-linejoin="round" points="6.2027027 9.48648649 7.66216216 8.02702703 9.12162162 9.48648649"></polyline>
                        </g>
                        <g id="Group-2" transform="translate(35.756757, 22.256757)">
                            <circle id="Oval-8" fill="#FFFFFF" cx="4.37837838" cy="5.47297297" r="3.64864865"></circle>
                            <polyline id="eye" stroke="#000000" stroke-width="0.5" stroke-linecap="round" stroke-linejoin="round" points="5.47297297 3.64864865 5.83783784 3.28378378 6.2027027 3.64864865"></polyline>
                            <polyline id="eye" stroke="#000000" stroke-width="0.5" stroke-linecap="round" stroke-linejoin="round" points="2.55405405 3.64864865 2.91891892 3.28378378 3.28378378 3.64864865"></polyline>
                            <circle id="Oval-8" fill="#FFB300" cx="3.64864865" cy="1.45945946" r="1"></circle>
                            <circle id="Oval-8" fill="#FFB300" cx="4.74324324" cy="1.09459459" r="1.09459459"></circle>
                            <circle id="Oval-8" fill="#FFFFFF" cx="4.37837838" cy="9.48648649" r="4.37837838"></circle>
                            <polygon id="Triangle" fill="#F5A623" transform="translate(4.378378, 5.655405) scale(1, -1) translate(-4.378378, -5.655405) " points="4.37837838 5.10810811 5.47297297 6.2027027 3.28378378 6.2027027"></polygon>
                            <polygon id="Triangle" fill="#FFB300" points="4.37837838 4.01351351 5.47297297 5.10810811 3.28378378 5.10810811"></polygon>
                        </g>
                        <path d="M34.8694465,29.0316087 C34.7343724,29.6889619 34.6621622,30.3036165 34.6621622,30.8310811 C34.6621622,33.9544752 37.1941734,36.4864865 40.3175676,36.4864865 C43.4409617,36.4864865 45.972973,33.9544752 45.972973,30.8310811 C45.972973,30.2354688 45.8808985,29.5286815 45.7102066,28.7747791 L44.1486486,30.6486486 L41.9594595,28.8243243 L40.5,30.6486486 L38.6756757,28.8243243 L36.4864865,30.6486486 L34.8694465,29.0316087 Z" id="Combined-Shape" fill="#FFE1EF"></path>
                    </g>
                    <path d="M73.9995,19.122 C69.8145,19.122 67.0335,22.092 67.0335,26.196 C67.0335,30.273 69.8415,33.27 74.0265,33.27 C76.4835,33.27 78.3465,32.163 79.5615,30.273 L77.2395,28.464 C76.5915,29.544 75.5385,30.435 74.0535,30.435 C71.6505,30.435 70.3275,28.572 70.3275,26.196 C70.3275,23.793 71.5965,21.957 74.0265,21.957 C75.5385,21.957 76.5375,22.821 77.1585,23.901 L79.5075,22.119 C78.2925,20.229 76.4835,19.122 73.9995,19.122 Z M87.7965,19.122 C91.8735,19.122 94.8705,22.119 94.8705,26.223 C94.8705,30.3 91.8735,33.27 87.7965,33.27 C83.7195,33.27 80.7225,30.3 80.7225,26.223 C80.7225,22.119 83.7195,19.122 87.7965,19.122 Z M87.7965,21.984 C85.6095,21.984 84.0165,23.766 84.0165,26.223 C84.0165,28.653 85.6095,30.408 87.7965,30.408 C89.9835,30.408 91.6035,28.653 91.6035,26.223 C91.6035,23.766 89.9835,21.984 87.7965,21.984 Z M103.3755,19.122 C99.1905,19.122 96.4095,22.092 96.4095,26.196 C96.4095,30.273 99.2175,33.27 103.4025,33.27 C105.8595,33.27 107.7225,32.163 108.9375,30.273 L106.6155,28.464 C105.9675,29.544 104.9145,30.435 103.4295,30.435 C101.0265,30.435 99.7035,28.572 99.7035,26.196 C99.7035,23.793 100.9725,21.957 103.4025,21.957 C104.9145,21.957 105.9135,22.821 106.5345,23.901 L108.8835,22.119 C107.6685,20.229 105.8595,19.122 103.3755,19.122 Z M117.1725,19.122 C121.2495,19.122 124.2465,22.119 124.2465,26.223 C124.2465,30.3 121.2495,33.27 117.1725,33.27 C113.0955,33.27 110.0985,30.3 110.0985,26.223 C110.0985,22.119 113.0955,19.122 117.1725,19.122 Z M117.1725,21.984 C114.9855,21.984 113.3925,23.766 113.3925,26.223 C113.3925,28.653 114.9855,30.408 117.1725,30.408 C119.3595,30.408 120.9795,28.653 120.9795,26.223 C120.9795,23.766 119.3595,21.984 117.1725,21.984 Z M131.1315,14.829 L127.8915,14.829 L127.8915,19.392 L125.3265,19.392 L125.3265,22.146 L127.8915,22.146 L127.8915,28.194 C127.8915,31.488 129.8625,33.27 132.9675,33.27 C134.3175,33.27 135.3165,32.892 135.9915,32.46 L135.1275,29.922 C134.7225,30.165 134.1285,30.354 133.2645,30.354 C131.9955,30.354 131.1315,29.544 131.1315,28.167 L131.1315,22.146 L135.2355,22.146 L135.2355,19.392 L131.1315,19.392 L131.1315,14.829 Z M142.2015,14.829 L138.9615,14.829 L138.9615,19.392 L136.3965,19.392 L136.3965,22.146 L138.9615,22.146 L138.9615,28.194 C138.9615,31.488 140.9325,33.27 144.0375,33.27 C145.3875,33.27 146.3865,32.892 147.0615,32.46 L146.1975,29.922 C145.7925,30.165 145.1985,30.354 144.3345,30.354 C143.0655,30.354 142.2015,29.544 142.2015,28.167 L142.2015,22.146 L146.3055,22.146 L146.3055,19.392 L142.2015,19.392 L142.2015,14.829 Z M154.5945,19.122 C158.7795,19.122 160.8315,22.254 160.8315,26.061 L160.8315,27.195 L151.2195,27.195 C151.3005,29.355 152.5965,30.543 154.8645,30.543 C156.4575,30.543 157.6185,29.841 158.2395,28.977 L160.4805,30.813 C159.1305,32.433 157.3485,33.27 154.8375,33.27 C150.6255,33.27 147.9255,30.3 147.9255,26.223 C147.9255,22.119 150.6795,19.122 154.5945,19.122 Z M154.5405,21.714 C152.6235,21.714 151.3275,22.983 151.2195,24.873 L157.6455,24.873 C157.5645,23.01 156.4845,21.714 154.5405,21.714 Z" id="cocotte" fill="#000000"></path>
                </g>
            </g>
        </g>
    </g>
</svg>