<?xml version="1.0" encoding="UTF-8"?>
<svg width="346px" height="54px" viewBox="0 0 346 54" version="1.1" xmlns="http://www.w3.org/2000/svg" xmlns:xlink="http://www.w3.org/1999/xlink">
    <!-- Generator: Sketch 46.2 (44496) - http://www.bohemiancoding.com/sketch -->
    <title>ae-b</title>
    <desc>Created with Sketch.</desc>
    <defs></defs>
    <g id="Page-1" stroke="none" stroke-width="1" fill="none" fill-rule="evenodd">
        <g id="Artboard" transform="translate(-20.000000, -92.000000)">
            <g id="ae-b" transform="translate(20.000000, 92.000000)">
                <path d="M72.576,39.804 C74.48,39.804 75.782,41.344 75.782,43.472 C75.782,45.586 74.48,47.14 72.576,47.14 C71.54,47.14 70.868,46.748 70.49,46.3 L70.49,50.22 L68.81,50.22 L68.81,39.944 L70.322,39.944 L70.392,40.77 C70.784,40.238 71.512,39.804 72.576,39.804 Z M72.212,41.288 C71.372,41.288 70.854,41.736 70.49,42.338 L70.49,44.606 C70.854,45.208 71.372,45.656 72.212,45.656 C73.304,45.656 74.088,44.802 74.088,43.472 C74.088,42.142 73.304,41.288 72.212,41.288 Z M79.8,39.804 C80.864,39.804 81.578,40.238 81.97,40.77 L82.054,39.944 L83.566,39.944 L83.566,47 L82.054,47 L81.97,46.174 C81.578,46.706 80.864,47.14 79.8,47.14 C77.882,47.14 76.58,45.586 76.58,43.472 C76.58,41.344 77.882,39.804 79.8,39.804 Z M80.164,41.288 C79.072,41.288 78.288,42.142 78.288,43.472 C78.288,44.802 79.072,45.656 80.164,45.656 C81.004,45.656 81.508,45.208 81.886,44.606 L81.886,42.338 C81.508,41.736 81.004,41.288 80.164,41.288 Z M89.278,39.804 C88.27,39.804 87.556,40.322 87.206,40.882 L87.122,39.944 L85.61,39.944 L85.61,47 L87.29,47 L87.29,42.548 C87.738,41.932 88.284,41.484 89.138,41.484 L89.278,41.484 L89.278,39.804 Z M96.726,39.804 C94.556,39.804 93.114,41.344 93.114,43.472 C93.114,45.586 94.57,47.14 96.74,47.14 C98.014,47.14 98.98,46.566 99.61,45.586 L98.406,44.648 C98.07,45.208 97.524,45.67 96.754,45.67 C95.508,45.67 94.822,44.704 94.822,43.472 C94.822,42.226 95.48,41.274 96.74,41.274 C97.524,41.274 98.042,41.722 98.364,42.282 L99.582,41.358 C98.952,40.378 98.014,39.804 96.726,39.804 Z M103.88,39.804 C105.994,39.804 107.548,41.358 107.548,43.486 C107.548,45.6 105.994,47.14 103.88,47.14 C101.766,47.14 100.212,45.6 100.212,43.486 C100.212,41.358 101.766,39.804 103.88,39.804 Z M103.88,41.288 C102.746,41.288 101.92,42.212 101.92,43.486 C101.92,44.746 102.746,45.656 103.88,45.656 C105.014,45.656 105.854,44.746 105.854,43.486 C105.854,42.212 105.014,41.288 103.88,41.288 Z M111.958,39.804 C109.788,39.804 108.346,41.344 108.346,43.472 C108.346,45.586 109.802,47.14 111.972,47.14 C113.246,47.14 114.212,46.566 114.842,45.586 L113.638,44.648 C113.302,45.208 112.756,45.67 111.986,45.67 C110.74,45.67 110.054,44.704 110.054,43.472 C110.054,42.226 110.712,41.274 111.972,41.274 C112.756,41.274 113.274,41.722 113.596,42.282 L114.814,41.358 C114.184,40.378 113.246,39.804 111.958,39.804 Z M119.112,39.804 C121.226,39.804 122.78,41.358 122.78,43.486 C122.78,45.6 121.226,47.14 119.112,47.14 C116.998,47.14 115.444,45.6 115.444,43.486 C115.444,41.358 116.998,39.804 119.112,39.804 Z M119.112,41.288 C117.978,41.288 117.152,42.212 117.152,43.486 C117.152,44.746 117.978,45.656 119.112,45.656 C120.246,45.656 121.086,44.746 121.086,43.486 C121.086,42.212 120.246,41.288 119.112,41.288 Z M126.35,37.578 L124.67,37.578 L124.67,39.944 L123.34,39.944 L123.34,41.372 L124.67,41.372 L124.67,44.508 C124.67,46.216 125.692,47.14 127.302,47.14 C128.002,47.14 128.52,46.944 128.87,46.72 L128.422,45.404 C128.212,45.53 127.904,45.628 127.456,45.628 C126.798,45.628 126.35,45.208 126.35,44.494 L126.35,41.372 L128.478,41.372 L128.478,39.944 L126.35,39.944 L126.35,37.578 Z M132.09,37.578 L130.41,37.578 L130.41,39.944 L129.08,39.944 L129.08,41.372 L130.41,41.372 L130.41,44.508 C130.41,46.216 131.432,47.14 133.042,47.14 C133.742,47.14 134.26,46.944 134.61,46.72 L134.162,45.404 C133.952,45.53 133.644,45.628 133.196,45.628 C132.538,45.628 132.09,45.208 132.09,44.494 L132.09,41.372 L134.218,41.372 L134.218,39.944 L132.09,39.944 L132.09,37.578 Z M138.516,39.804 C140.686,39.804 141.75,41.428 141.75,43.402 L141.75,43.99 L136.766,43.99 C136.808,45.11 137.48,45.726 138.656,45.726 C139.482,45.726 140.084,45.362 140.406,44.914 L141.568,45.866 C140.868,46.706 139.944,47.14 138.642,47.14 C136.458,47.14 135.058,45.6 135.058,43.486 C135.058,41.358 136.486,39.804 138.516,39.804 Z M138.488,41.148 C137.494,41.148 136.822,41.806 136.766,42.786 L140.098,42.786 C140.056,41.82 139.496,41.148 138.488,41.148 Z" id="par-cocotte" fill="#000000"></path>
                <path d="M75.639,12.804 L84.981,33 L81.309,33 L79.743,29.409 L71.427,29.409 L69.861,33 L66.189,33 L75.531,12.804 L75.639,12.804 Z M75.585,19.743 L72.588,26.628 L78.582,26.628 L75.585,19.743 Z M90.381,12.48 L87.141,12.48 L87.141,33 L90.381,33 L90.381,12.48 Z M97.563,19.392 L94.323,19.392 L94.323,33 L97.563,33 L97.563,19.392 Z M95.943,13.047 C94.809,13.047 93.945,13.884 93.945,15.045 C93.945,16.206 94.809,17.043 95.943,17.043 C97.104,17.043 97.968,16.206 97.968,15.045 C97.968,13.884 97.104,13.047 95.943,13.047 Z M108.66,19.122 C106.662,19.122 105.312,19.986 104.556,20.958 L104.421,19.392 L101.505,19.392 L101.505,33 L104.745,33 L104.745,24.063 C105.474,23.064 106.392,22.173 107.769,22.173 C109.362,22.173 110.307,23.415 110.307,25.224 L110.307,33 L113.574,33 L113.574,24.738 C113.574,24.549 113.547,24.333 113.547,24.117 C114.249,23.064 115.221,22.173 116.598,22.173 C118.191,22.173 119.136,23.415 119.136,25.224 L119.136,33 L122.403,33 L122.403,25.035 C122.403,21.471 120.621,19.122 117.489,19.122 C115.302,19.122 113.817,20.121 112.818,21.525 C112.008,20.013 110.604,19.122 108.66,19.122 Z M131.448,19.122 C135.633,19.122 137.685,22.254 137.685,26.061 L137.685,27.195 L128.073,27.195 C128.154,29.355 129.45,30.543 131.718,30.543 C133.311,30.543 134.472,29.841 135.093,28.977 L137.334,30.813 C135.984,32.433 134.202,33.27 131.691,33.27 C127.479,33.27 124.779,30.3 124.779,26.223 C124.779,22.119 127.533,19.122 131.448,19.122 Z M131.394,21.714 C129.477,21.714 128.181,22.983 128.073,24.873 L134.499,24.873 C134.418,23.01 133.338,21.714 131.394,21.714 Z M147.702,19.122 C145.731,19.122 144.354,19.986 143.598,20.958 L143.463,19.392 L140.547,19.392 L140.547,33 L143.787,33 L143.787,24.09 C144.462,23.064 145.434,22.173 146.865,22.173 C148.539,22.173 149.592,23.415 149.592,25.224 L149.592,33 L152.859,33 L152.859,25.035 C152.859,21.471 151.023,19.122 147.702,19.122 Z M160.581,14.829 L157.341,14.829 L157.341,19.392 L154.776,19.392 L154.776,22.146 L157.341,22.146 L157.341,28.194 C157.341,31.488 159.312,33.27 162.417,33.27 C163.767,33.27 164.766,32.892 165.441,32.46 L164.577,29.922 C164.172,30.165 163.578,30.354 162.714,30.354 C161.445,30.354 160.581,29.544 160.581,28.167 L160.581,22.146 L164.685,22.146 L164.685,19.392 L160.581,19.392 L160.581,14.829 Z M172.515,19.122 C174.567,19.122 175.944,19.959 176.7,20.985 L176.862,19.392 L179.778,19.392 L179.778,33 L176.862,33 L176.7,31.407 C175.944,32.433 174.567,33.27 172.515,33.27 C168.816,33.27 166.305,30.273 166.305,26.196 C166.305,22.092 168.816,19.122 172.515,19.122 Z M173.217,21.984 C171.111,21.984 169.599,23.631 169.599,26.196 C169.599,28.761 171.111,30.408 173.217,30.408 C174.837,30.408 175.809,29.544 176.538,28.383 L176.538,24.009 C175.809,22.848 174.837,21.984 173.217,21.984 Z M187.851,14.829 L184.611,14.829 L184.611,19.392 L182.046,19.392 L182.046,22.146 L184.611,22.146 L184.611,28.194 C184.611,31.488 186.582,33.27 189.687,33.27 C191.037,33.27 192.036,32.892 192.711,32.46 L191.847,29.922 C191.442,30.165 190.848,30.354 189.984,30.354 C188.715,30.354 187.851,29.544 187.851,28.167 L187.851,22.146 L191.955,22.146 L191.955,19.392 L187.851,19.392 L187.851,14.829 Z M198.03,19.392 L194.79,19.392 L194.79,33 L198.03,33 L198.03,19.392 Z M196.41,13.047 C195.276,13.047 194.412,13.884 194.412,15.045 C194.412,16.206 195.276,17.043 196.41,17.043 C197.571,17.043 198.435,16.206 198.435,15.045 C198.435,13.884 197.571,13.047 196.41,13.047 Z M207.831,19.122 C211.908,19.122 214.905,22.119 214.905,26.223 C214.905,30.3 211.908,33.27 207.831,33.27 C203.754,33.27 200.757,30.3 200.757,26.223 C200.757,22.119 203.754,19.122 207.831,19.122 Z M207.831,21.984 C205.644,21.984 204.051,23.766 204.051,26.223 C204.051,28.653 205.644,30.408 207.831,30.408 C210.018,30.408 211.638,28.653 211.638,26.223 C211.638,23.766 210.018,21.984 207.831,21.984 Z M224.814,19.122 C222.843,19.122 221.466,19.986 220.71,20.958 L220.575,19.392 L217.659,19.392 L217.659,33 L220.899,33 L220.899,24.09 C221.574,23.064 222.546,22.173 223.977,22.173 C225.651,22.173 226.704,23.415 226.704,25.224 L226.704,33 L229.971,33 L229.971,25.035 C229.971,21.471 228.135,19.122 224.814,19.122 Z M252.489,13.155 L239.961,13.155 L239.961,33 L252.705,33 L252.705,29.895 L243.336,29.895 L243.336,24.414 L251.328,24.414 L251.328,21.471 L243.336,21.471 L243.336,16.26 L252.489,16.26 L252.489,13.155 Z M262.749,19.122 C260.778,19.122 259.401,19.986 258.645,20.958 L258.51,19.392 L255.594,19.392 L255.594,33 L258.834,33 L258.834,24.09 C259.509,23.064 260.481,22.173 261.912,22.173 C263.586,22.173 264.639,23.415 264.639,25.224 L264.639,33 L267.906,33 L267.906,25.035 C267.906,21.471 266.07,19.122 262.749,19.122 Z M277.248,19.122 C273.063,19.122 270.282,22.092 270.282,26.196 C270.282,30.273 273.09,33.27 277.275,33.27 C279.732,33.27 281.595,32.163 282.81,30.273 L280.488,28.464 C279.84,29.544 278.787,30.435 277.302,30.435 C274.899,30.435 273.576,28.572 273.576,26.196 C273.576,23.793 274.845,21.957 277.275,21.957 C278.787,21.957 279.786,22.821 280.407,23.901 L282.756,22.119 C281.541,20.229 279.732,19.122 277.248,19.122 Z M290.64,19.122 C294.825,19.122 296.877,22.254 296.877,26.061 L296.877,27.195 L287.265,27.195 C287.346,29.355 288.642,30.543 290.91,30.543 C292.503,30.543 293.664,29.841 294.285,28.977 L296.526,30.813 C295.176,32.433 293.394,33.27 290.883,33.27 C286.671,33.27 283.971,30.3 283.971,26.223 C283.971,22.119 286.725,19.122 290.64,19.122 Z M290.586,21.714 C288.669,21.714 287.373,22.983 287.265,24.873 L293.691,24.873 C293.61,23.01 292.53,21.714 290.586,21.714 Z M302.979,19.392 L299.739,19.392 L299.739,33 L302.979,33 L302.979,19.392 Z M301.359,13.047 C300.225,13.047 299.361,13.884 299.361,15.045 C299.361,16.206 300.225,17.043 301.359,17.043 C302.52,17.043 303.384,16.206 303.384,15.045 C303.384,13.884 302.52,13.047 301.359,13.047 Z M314.076,19.122 C312.105,19.122 310.728,19.986 309.972,20.958 L309.837,19.392 L306.921,19.392 L306.921,33 L310.161,33 L310.161,24.09 C310.836,23.064 311.808,22.173 313.239,22.173 C314.913,22.173 315.966,23.415 315.966,25.224 L315.966,33 L319.233,33 L319.233,25.035 C319.233,21.471 317.397,19.122 314.076,19.122 Z M326.955,14.829 L323.715,14.829 L323.715,19.392 L321.15,19.392 L321.15,22.146 L323.715,22.146 L323.715,28.194 C323.715,31.488 325.686,33.27 328.791,33.27 C330.141,33.27 331.14,32.892 331.815,32.46 L330.951,29.922 C330.546,30.165 329.952,30.354 329.088,30.354 C327.819,30.354 326.955,29.544 326.955,28.167 L326.955,22.146 L331.059,22.146 L331.059,19.392 L326.955,19.392 L326.955,14.829 Z M339.348,19.122 C343.533,19.122 345.585,22.254 345.585,26.061 L345.585,27.195 L335.973,27.195 C336.054,29.355 337.35,30.543 339.618,30.543 C341.211,30.543 342.372,29.841 342.993,28.977 L345.234,30.813 C343.884,32.433 342.102,33.27 339.591,33.27 C335.379,33.27 332.679,30.3 332.679,26.223 C332.679,22.119 335.433,19.122 339.348,19.122 Z M339.294,21.714 C337.377,21.714 336.081,22.983 335.973,24.873 L342.399,24.873 C342.318,23.01 341.238,21.714 339.294,21.714 Z" id="Alimentation-Enceint" fill="#000000"></path>
                <g id="icon">
                    <rect id="bg" fill="#FF0079" x="0" y="0" width="54" height="54" rx="27"></rect>
                    <g id="cocoote" transform="translate(20.162162, 25.135135) scale(-1, 1) translate(-20.162162, -25.135135) translate(5.662162, 13.135135)">
                        <path d="M14.9594595,12.4054054 L25.9054054,12.4054054 C25.9054054,18.4506844 21.0047385,23.3513514 14.9594595,23.3513514 L9.48648649,23.3513514 L9.48648649,23.3513514 C6.46384698,23.3513514 4.01351351,20.9010179 4.01351351,17.8783784 L4.01351351,17.8783784 L4.01351351,17.8783784 L4.01351351,8.75675676 L4.01351351,8.75675676 C4.01351351,5.73411725 6.46384698,3.28378378 9.48648649,3.28378378 L9.48648649,3.28378378 L9.48648649,3.28378378 C12.509126,3.28378378 14.9594595,5.73411725 14.9594595,8.75675676 L14.9594595,12.4054054 Z" id="body" fill="#FFFFFF"></path>
                        <path d="M22.9864865,12.4054054 C22.9864865,10.793331 24.293331,9.48648649 25.9054054,9.48648649 C27.5174798,9.48648649 28.8243243,10.793331 28.8243243,12.4054054 L22.9864865,12.4054054 Z" id="Combined-Shape" fill="#FFB300"></path>
                        <path d="M18.6081081,10.9459459 C18.6081081,9.33387154 19.9149526,8.02702703 21.527027,8.02702703 C23.1391014,8.02702703 24.4459459,9.33387154 24.4459459,10.9459459 L18.6081081,10.9459459 Z" id="Combined-Shape" fill="#FFB300" transform="translate(21.527027, 9.486486) rotate(-90.000000) translate(-21.527027, -9.486486) "></path>
                        <path d="M14.9594595,12.4054054 L22.2567568,12.4054054 C22.2567568,15.6295542 19.6430677,18.2432432 16.4189189,18.2432432 L14.9594595,18.2432432 L14.9594595,12.4054054 Z M12.1904215,12.4054054 L14.9594595,12.4054054 L14.9594595,18.2432432 L14.9594595,18.2432432 C13.076355,18.2432432 11.3818298,17.09996 10.6768477,15.3537978 L10.4987648,14.9127062 L10.4987648,14.9127062 C10.1215673,13.97843 10.5731688,12.9152705 11.507445,12.538073 C11.7244852,12.4504469 11.95636,12.4054054 12.1904215,12.4054054 L12.1904215,12.4054054 Z" id="Combined-Shape" fill-opacity="0.179376132" fill="#FF0079" opacity="0.665591033"></path>
                        <polygon id="Rectangle-8" fill="#F5A623" points="0 8.75675676 4.01351351 8.75675676 4.01351351 12.7702703"></polygon>
                        <path d="M10.0615813,5.06458766 C9.66002018,5.53764381 9.06101307,5.83783784 8.39189189,5.83783784 C7.83085874,5.83783784 7.31911717,5.62679553 6.93172369,5.27976743 C6.6503969,5.60848793 6.24244184,5.83783784 5.83783784,5.83783784 C4.74861355,5.83783784 4.01351351,5.1027378 4.01351351,4.37837838 C4.01351351,3.28915409 4.74861355,2.55405405 5.83783784,2.55405405 C6.03415595,2.55405405 6.23126299,2.60804972 6.41431108,2.70845675 C6.76606629,1.96990107 7.51936908,1.45945946 8.39189189,1.45945946 C8.75066524,1.45945946 9.08928112,1.54576384 9.3881112,1.69874426 C9.85015057,0.696018092 10.8640637,0 12.0405405,0 C13.6526149,0 14.9594595,1.30684451 14.9594595,2.91891892 C14.9594595,4.53099332 13.6526149,5.83783784 12.0405405,5.83783784 C11.276911,5.83783784 10.5817706,5.54460053 10.0615813,5.06458766 Z" id="Combined-Shape" fill="#FFB300"></path>
                        <path d="M6.2027027,15.3243243 C6.71363637,16.031565 6.71363637,16.9197262 6.2027027,17.5135135 C5.54508597,18.0153287 4.59778871,18.0153287 4.01351351,17.5135135 C3.42923832,18.0153287 2.48194105,18.0153287 1.82432432,17.5135135 C1.31339066,16.9197262 1.31339066,16.031565 1.82432432,15.3243243 L4.01351351,13.5 L6.2027027,15.3243243 Z" id="Combined-Shape" fill="#FFB300"></path>
                        <polyline id="eye" stroke="#000000" stroke-width="0.72972973" stroke-linecap="round" stroke-linejoin="round" points="6.2027027 9.48648649 7.66216216 8.02702703 9.12162162 9.48648649"></polyline>
                    </g>
                    <g id="Group-2" transform="translate(35.756757, 22.256757)">
                        <circle id="Oval-8" fill="#FFFFFF" cx="4.37837838" cy="5.47297297" r="3.64864865"></circle>
                        <polyline id="eye" stroke="#000000" stroke-width="0.5" stroke-linecap="round" stroke-linejoin="round" points="5.47297297 3.64864865 5.83783784 3.28378378 6.2027027 3.64864865"></polyline>
                        <polyline id="eye" stroke="#000000" stroke-width="0.5" stroke-linecap="round" stroke-linejoin="round" points="2.55405405 3.64864865 2.91891892 3.28378378 3.28378378 3.64864865"></polyline>
                        <circle id="Oval-8" fill="#FFB300" cx="3.64864865" cy="1.45945946" r="1"></circle>
                        <circle id="Oval-8" fill="#FFB300" cx="4.74324324" cy="1.09459459" r="1.09459459"></circle>
                        <circle id="Oval-8" fill="#FFFFFF" cx="4.37837838" cy="9.48648649" r="4.37837838"></circle>
                        <polygon id="Triangle" fill="#F5A623" transform="translate(4.378378, 5.655405) scale(1, -1) translate(-4.378378, -5.655405) " points="4.37837838 5.10810811 5.47297297 6.2027027 3.28378378 6.2027027"></polygon>
                        <polygon id="Triangle" fill="#FFB300" points="4.37837838 4.01351351 5.47297297 5.10810811 3.28378378 5.10810811"></polygon>
                    </g>
                    <path d="M34.8694465,29.0316087 C34.7343724,29.6889619 34.6621622,30.3036165 34.6621622,30.8310811 C34.6621622,33.9544752 37.1941734,36.4864865 40.3175676,36.4864865 C43.4409617,36.4864865 45.972973,33.9544752 45.972973,30.8310811 C45.972973,30.2354688 45.8808985,29.5286815 45.7102066,28.7747791 L44.1486486,30.6486486 L41.9594595,28.8243243 L40.5,30.6486486 L38.6756757,28.8243243 L36.4864865,30.6486486 L34.8694465,29.0316087 Z" id="Combined-Shape" fill="#FFE1EF"></path>
                </g>
            </g>
        </g>
    </g>
</svg>