<?xml version="1.0" encoding="UTF-8"?>
<svg width="110px" height="128px" viewBox="0 0 110 128" version="1.1" xmlns="http://www.w3.org/2000/svg" xmlns:xlink="http://www.w3.org/1999/xlink">
    <!-- Generator: Sketch 45.2 (43514) - http://www.bohemiancoding.com/sketch -->
    <title>bg</title>
    <desc>Created with Sketch.</desc>
    <defs>
        <rect id="path-1" x="0" y="0" width="110" height="128"></rect>
        <filter x="-11.8%" y="-8.6%" width="123.6%" height="120.3%" filterUnits="objectBoundingBox" id="filter-3">
            <feOffset dx="0" dy="2" in="SourceAlpha" result="shadowOffsetOuter1"></feOffset>
            <feGaussianBlur stdDeviation="4" in="shadowOffsetOuter1" result="shadowBlurOuter1"></feGaussianBlur>
            <feColorMatrix values="0 0 0 0 0   0 0 0 0 0   0 0 0 0 0  0 0 0 0.15 0" type="matrix" in="shadowBlurOuter1"></feColorMatrix>
        </filter>
        <path d="M15.1457272,70.3012568 C15.0499403,70.8434008 15,71.4101316 15,71.9980749 L15,102.001925 C15,107.518831 19.4775673,112 25.0009266,112 L49.9990734,112 C55.5207109,112 60,107.522852 60,102.000011 L60,91.9999892 C60,86.4750951 57.4495952,78.3234634 54.3035115,73.7882258 L50.9733636,68.9876505 C50.9910449,68.6606777 51,68.3313846 51,68 C51,58.0588745 42.9411255,50 33,50 C23.0588745,50 15,58.0588745 15,68 C15,68.7796562 15.0495689,69.5477351 15.1457272,70.3012568 Z" id="path-4"></path>
        <circle id="path-5" cx="33" cy="68" r="6"></circle>
        <path d="M72.2787621,111.99827 C84.3005616,111.84899 94,102.057208 94,90 C94,77.8497355 84.1502645,68 72,68 C63.1890986,68 55.5879509,73.1795709 52.0753145,80.659955 L39,92.7778542 L39.0081978,92.82851 C35.4720104,94.3697488 33,97.8961899 33,102 C33,107.221003 37.0011392,111.50749 42.104397,111.96044 L42.1107992,112 L72.2792969,112 Z" id="path-6"></path>
        <filter x="-3.3%" y="-4.5%" width="106.6%" height="109.1%" filterUnits="objectBoundingBox" id="filter-7">
            <feOffset dx="0" dy="-4" in="SourceAlpha" result="shadowOffsetInner1"></feOffset>
            <feComposite in="shadowOffsetInner1" in2="SourceAlpha" operator="arithmetic" k2="-1" k3="1" result="shadowInnerInner1"></feComposite>
            <feColorMatrix values="0 0 0 0 0.754437713   0 0 0 0 0.485609605   0 0 0 0 0.0862078447  0 0 0 0.833757926 0" type="matrix" in="shadowInnerInner1"></feColorMatrix>
        </filter>
        <path d="M12,44 C18.627417,44 24,38.627417 24,32 C24,25.372583 18.627417,12 12,12 C5.372583,12 -1.42e-14,25.372583 -1.42e-14,32 C-1.42e-14,38.627417 5.372583,44 12,44 Z" id="path-8"></path>
        <filter x="-6.2%" y="-4.7%" width="112.5%" height="109.4%" filterUnits="objectBoundingBox" id="filter-9">
            <feOffset dx="-3" dy="-2" in="SourceAlpha" result="shadowOffsetInner1"></feOffset>
            <feComposite in="shadowOffsetInner1" in2="SourceAlpha" operator="arithmetic" k2="-1" k3="1" result="shadowInnerInner1"></feComposite>
            <feColorMatrix values="0 0 0 0 0.49311756   0 0 0 0 0.303961663   0 0 0 0 0.0229300443  0 0 0 0 0" type="matrix" in="shadowInnerInner1"></feColorMatrix>
        </filter>
    </defs>
    <g id="Page-1" stroke="none" stroke-width="1" fill="none" fill-rule="evenodd">
        <g id="home" transform="translate(-916.000000, -732.000000)">
            <g id="catégories" transform="translate(428.000000, 552.000000)">
                <g id="item" transform="translate(488.000000, 180.000000)">
                    <g id="illustration">
                        <mask id="mask-2" fill="white">
                            <use xlink:href="#path-1"></use>
                        </mask>
                        <g id="bg">
                            <use fill="black" fill-opacity="1" filter="url(#filter-3)" xlink:href="#path-1"></use>
                            <use fill="#FFDA3A" fill-rule="evenodd" xlink:href="#path-1"></use>
                        </g>
                        <rect id="shadow" fill="#FFB93A" mask="url(#mask-2)" x="10" y="112" width="90" height="3" rx="1.5"></rect>
                        <g id="Group-14" mask="url(#mask-2)">
                            <g transform="translate(77.000000, 16.000000)">
                                <rect id="Rectangle-59" stroke="none" fill="#E4F5FC" fill-rule="evenodd" x="7" y="9" width="2" height="87" rx="1"></rect>
                                <path d="M2,20.992017 C2,19.8918564 2.88238865,18.8529352 3.98155594,18.6697407 L12.0184441,17.3302593 C13.1128272,17.1478621 14,17.8935426 14,19.0027601 L14,27.9972399 C14,29.1033337 13.0980496,30 11.9914698,30 L4.0085302,30 C2.8992496,30 2,29.0998238 2,28.007983 L2,20.992017 Z" id="Rectangle-60" stroke="none" fill="#93641D" fill-rule="evenodd"></path>
                                <rect id="Rectangle-60" stroke="none" fill="#7F581E" fill-rule="evenodd" x="10" y="18" width="4" height="12" rx="2"></rect>
                                <rect id="Rectangle-61" stroke="none" fill="#99D22A" fill-rule="evenodd" x="4" y="16" width="8" height="2" rx="1"></rect>
                                <rect id="Rectangle-61" stroke="none" fill="#F64848" fill-rule="evenodd" x="8" y="16" width="4" height="2" rx="1"></rect>
                                <path d="M2,33.992017 C2,32.8918564 2.90195036,32 4.0085302,32 L11.9914698,32 C13.1007504,32 14,32.8935426 14,34.0027601 L14,42.9972399 C14,44.1033337 13.1176113,44.8529352 12.0184441,44.6697407 L3.98155594,43.3302593 C2.88717281,43.1478621 2,42.0998238 2,41.007983 L2,33.992017 Z" id="Rectangle-60" stroke="none" fill="#93641D" fill-rule="evenodd"></path>
                                <rect id="Rectangle-60" stroke="none" fill="#7F581E" fill-rule="evenodd" x="10" y="32" width="4" height="12" rx="2"></rect>
                                <rect id="Rectangle-61" stroke="none" fill="#99D22A" fill-rule="evenodd" x="4" y="30" width="6" height="2" rx="1"></rect>
                                <rect id="Rectangle-61" stroke="none" fill="#7EAF1E" fill-rule="evenodd" x="6" y="30" width="6" height="2" rx="1"></rect>
                                <rect id="Rectangle-60" stroke="none" fill="#93641D" fill-rule="evenodd" x="2" y="46" width="12" height="12" rx="2"></rect>
                                <rect id="Rectangle-60" stroke="none" fill="#7F581E" fill-rule="evenodd" x="10" y="46" width="4" height="12" rx="2"></rect>
                                <rect id="Rectangle-60" stroke="none" fill="#7F581E" fill-rule="evenodd" x="2" y="80" width="12" height="12" rx="2"></rect>
                                <rect id="Rectangle-61" stroke="none" fill="#F64848" fill-rule="evenodd" x="4" y="44" width="8" height="2" rx="1"></rect>
                                <path d="M8.32226563,10.6699219 L0.765302256,3.11295851 C-0.408124495,1.93953175 -0.0202752685,0.988281422 1.64780424,0.988281422 L13.8444631,0.988281422 C15.5052822,0.988281422 15.8976042,1.94231939 14.7244984,3.11542519 L11.9035706,5.93635298" id="Path-7" stroke="#E4F5FC" stroke-width="2" fill="none"></path>
                            </g>
                        </g>
                        <g id="Combined-Shape" mask="url(#mask-2)">
                            <use fill="#F64848" fill-rule="evenodd" xlink:href="#path-4"></use>
                            <path stroke="#FCE9BC" stroke-width="2" d="M16.137683,70.1746715 L16.1569312,70.3255057 L16.1304752,70.4752438 C16.0439777,70.9648104 16,71.4735597 16,71.9980749 L16,102.001925 C16,106.968243 20.0315485,111 25.0009266,111 L49.9990734,111 C54.9690684,111 59,106.969925 59,102.000011 L59,91.9999892 C59,86.6795047 56.5122086,78.7266157 53.4818541,74.3582075 L49.956312,69.2759615 L49.9748225,68.9336536 C49.9915872,68.6236322 50,68.3123437 50,68 C50,58.6111593 42.3888407,51 33,51 C23.6111593,51 16,58.6111593 16,68 C16,68.7318258 16.0461832,69.4576552 16.137683,70.1746715 Z"></path>
                        </g>
                        <rect id="Rectangle-51" fill="#AB2323" opacity="0.351154384" mask="url(#mask-2)" transform="translate(35.500000, 85.000000) rotate(-30.000000) translate(-35.500000, -85.000000) " x="22" y="82" width="27" height="6" rx="3"></rect>
                        <rect id="Rectangle-51" fill="#AB2323" opacity="0.351154384" mask="url(#mask-2)" transform="translate(35.500000, 98.000000) rotate(-30.000000) translate(-35.500000, -98.000000) " x="22" y="95" width="27" height="6" rx="3"></rect>
                        <g id="Oval-28" mask="url(#mask-2)">
                            <use fill="#AB2323" fill-rule="evenodd" xlink:href="#path-5"></use>
                            <circle stroke="#FCE9BC" stroke-width="2" cx="33" cy="68" r="5"></circle>
                        </g>
                        <g id="Group-12" mask="url(#mask-2)">
                            <g transform="translate(66.000000, 74.000000) rotate(-324.000000) translate(-66.000000, -74.000000) translate(54.000000, 52.000000)">
                                <path d="M16,8 L16,20 L8,20 L8,8 C5.790861,8 4,6.209139 4,4 C4,1.790861 5.790861,4.97e-14 8,4.97e-14 C10.209139,4.97e-14 12,1.790861 12,4 C12,1.790861 13.790861,4.97e-14 16,4.97e-14 C18.209139,4.97e-14 20,1.790861 20,4 C20,6.209139 18.209139,8 16,8 Z" id="Combined-Shape" fill="#FCE9BC"></path>
                                <path d="M12,44 C18.627417,44 24,38.627417 24,32 C24,25.372583 18.627417,12 12,12 C5.372583,12 -1.42e-14,25.372583 -1.42e-14,32 C-1.42e-14,38.627417 5.372583,44 12,44 Z" id="Oval-24" fill="#C17D17"></path>
                            </g>
                        </g>
                        <g id="Combined-Shape" mask="url(#mask-2)">
                            <use fill="#CB8722" fill-rule="evenodd" xlink:href="#path-6"></use>
                            <use fill="black" fill-opacity="1" filter="url(#filter-7)" xlink:href="#path-6"></use>
                        </g>
                        <path d="M25.0495586,100.049559 C24.7512374,103.177474 25.7997397,106.409609 28.1950654,108.804935 C30.5903911,111.20026 33.8225256,112.248763 36.9504414,111.950441 C37.2487626,108.822526 36.2002603,105.590391 33.8049346,103.195065 C31.4096089,100.79974 28.1774744,99.7512374 25.0495586,100.049559 L25.0495586,100.049559 Z" id="leaf" fill="#88C11A" mask="url(#mask-2)"></path>
                        <path d="M35.0660781,96.0660781 C34.6683165,100.236632 36.0663196,104.546145 39.2600872,107.739913 C42.4538548,110.93368 46.7633675,112.331683 50.9339219,111.933922 C51.3316835,107.763368 49.9336804,103.453855 46.7399128,100.260087 C43.5461452,97.0663196 39.2366325,95.6683165 35.0660781,96.0660781 L35.0660781,96.0660781 Z" id="leaf" fill="#72A115" mask="url(#mask-2)" transform="translate(43.000000, 104.000000) scale(-1, 1) translate(-43.000000, -104.000000) "></path>
                        <path d="M77.0247793,106.024779 C76.8756187,107.588737 77.3998698,109.204804 78.5975327,110.402467 C79.7951956,111.60013 81.4112628,112.124381 82.9752207,111.975221 C83.1243813,110.411263 82.6001302,108.795196 81.4024673,107.597533 C80.2048044,106.39987 78.5887372,105.875619 77.0247793,106.024779 L77.0247793,106.024779 Z" id="leaf" fill="#88C11A" mask="url(#mask-2)" transform="translate(80.000000, 109.000000) scale(-1, 1) translate(-80.000000, -109.000000) "></path>
                        <g id="Group-12" mask="url(#mask-2)">
                            <g transform="translate(86.000000, 80.000000) rotate(-315.000000) translate(-86.000000, -80.000000) translate(74.000000, 58.000000)">
                                <path d="M16,8 L16,20 L8,20 L8,8 C5.790861,8 4,6.209139 4,4 C4,1.790861 5.790861,6.39e-14 8,6.39e-14 C10.209139,6.39e-14 12,1.790861 12,4 C12,1.790861 13.790861,6.39e-14 16,6.39e-14 C18.209139,6.39e-14 20,1.790861 20,4 C20,6.209139 18.209139,8 16,8 Z" id="Combined-Shape" fill="#FCE9BC" fill-rule="evenodd"></path>
                                <g id="Oval-24" fill="none">
                                    <use fill="#DD9831" fill-rule="evenodd" xlink:href="#path-8"></use>
                                    <use fill="black" fill-opacity="1" filter="url(#filter-9)" xlink:href="#path-8"></use>
                                </g>
                            </g>
                        </g>
                    </g>
                </g>
            </g>
        </g>
    </g>
</svg>