<?xml version="1.0" encoding="UTF-8"?>
<svg width="90px" height="99px" viewBox="0 0 90 99" version="1.1" xmlns="http://www.w3.org/2000/svg" xmlns:xlink="http://www.w3.org/1999/xlink">
    <!-- Generator: Sketch 45.2 (43514) - http://www.bohemiancoding.com/sketch -->
    <title>illustration</title>
    <desc>Created with Sketch.</desc>
    <defs>
        <rect id="path-1" x="18" y="78" width="34" height="34" rx="2"></rect>
        <filter x="-2.9%" y="-2.9%" width="105.9%" height="105.9%" filterUnits="objectBoundingBox" id="filter-2">
            <feOffset dx="0" dy="-2" in="SourceAlpha" result="shadowOffsetInner1"></feOffset>
            <feComposite in="shadowOffsetInner1" in2="SourceAlpha" operator="arithmetic" k2="-1" k3="1" result="shadowInnerInner1"></feComposite>
            <feColorMatrix values="0 0 0 0 0.623529412   0 0 0 0 0.341176471   0 0 0 0 0.71372549  0 0 0 0.1 0" type="matrix" in="shadowInnerInner1"></feColorMatrix>
        </filter>
        <path d="M73,60.0020903 C73,58.8963663 73.8970601,58 75.0058587,58 L84.9941413,58 C86.1019465,58 87,58.8922172 87,60.0020903 L87,104.995803 C87,108.864114 83.8581267,112 80,112 L80,112 C76.1340068,112 73,108.863324 73,104.995803 L73,60.0020903 Z" id="path-3"></path>
        <filter x="-14.3%" y="-3.7%" width="128.6%" height="107.4%" filterUnits="objectBoundingBox" id="filter-4">
            <feOffset dx="0" dy="-4" in="SourceAlpha" result="shadowOffsetInner1"></feOffset>
            <feComposite in="shadowOffsetInner1" in2="SourceAlpha" operator="arithmetic" k2="-1" k3="1" result="shadowInnerInner1"></feComposite>
            <feColorMatrix values="0 0 0 0 0.623529412   0 0 0 0 0.341176471   0 0 0 0 0.71372549  0 0 0 0.1 0" type="matrix" in="shadowInnerInner1"></feColorMatrix>
        </filter>
        <rect id="path-5" x="38" y="94" width="44" height="18" rx="9"></rect>
        <filter x="-4.5%" y="-11.1%" width="109.1%" height="122.2%" filterUnits="objectBoundingBox" id="filter-6">
            <feOffset dx="0" dy="-4" in="SourceAlpha" result="shadowOffsetInner1"></feOffset>
            <feComposite in="shadowOffsetInner1" in2="SourceAlpha" operator="arithmetic" k2="-1" k3="1" result="shadowInnerInner1"></feComposite>
            <feColorMatrix values="0 0 0 0 0.623529412   0 0 0 0 0.341176471   0 0 0 0 0.71372549  0 0 0 0.1 0" type="matrix" in="shadowInnerInner1"></feColorMatrix>
        </filter>
    </defs>
    <g id="Page-1" stroke="none" stroke-width="1" fill="none" fill-rule="evenodd">
        <g id="no-results" transform="translate(-560.000000, -928.000000)">
            <g id="catégories" transform="translate(428.000000, 552.000000)">
                <g id="item" transform="translate(122.000000, 360.000000)">
                    <g id="illustration">
                        <rect id="shadow" fill="#FFB93A" x="10" y="112" width="90" height="3" rx="1.5"></rect>
                        <circle id="Oval-18" fill="#72A115" cx="36" cy="71" r="12"></circle>
                        <path d="M30.0991171,64.0991171 C29.5024748,70.3549487 31.5994793,76.8192178 36.3901308,81.6098692 C41.1807822,86.4005207 47.6450513,88.4975252 53.9008829,87.9008829 C54.4975252,81.6450513 52.4005207,75.1807822 47.6098692,70.3901308 C42.8192178,65.5994793 36.3549487,63.5024748 30.0991171,64.0991171 L30.0991171,64.0991171 Z" id="leaf" fill="#7FB317" transform="translate(42.000000, 76.000000) scale(-1, 1) translate(-42.000000, -76.000000) "></path>
                        <path d="M28.0991171,64.0991171 C27.5024748,70.3549487 29.5994793,76.8192178 34.3901308,81.6098692 C39.1807822,86.4005207 45.6450513,88.4975252 51.9008829,87.9008829 C52.4975252,81.6450513 50.4005207,75.1807822 45.6098692,70.3901308 C40.8192178,65.5994793 34.3549487,63.5024748 28.0991171,64.0991171 L28.0991171,64.0991171 Z" id="leaf" fill="#78A817" transform="translate(40.000000, 76.000000) scale(-1, 1) rotate(28.000000) translate(-40.000000, -76.000000) "></path>
                        <path d="M17.0991171,67.0991171 C16.5024748,73.3549487 18.5994793,79.8192178 23.3901308,84.6098692 C28.1807822,89.4005207 34.6450513,91.4975252 40.9008829,90.9008829 C41.4975252,84.6450513 39.4005207,78.1807822 34.6098692,73.3901308 C29.8192178,68.5994793 23.3549487,66.5024748 17.0991171,67.0991171 L17.0991171,67.0991171 Z" id="leaf" fill="#72A115"></path>
                        <path d="M19.0991171,63.0991171 C18.5024748,69.3549487 20.5994793,75.8192178 25.3901308,80.6098692 C30.1807822,85.4005207 36.6450513,87.4975252 42.9008829,86.9008829 C43.4975252,80.6450513 41.4005207,74.1807822 36.6098692,69.3901308 C31.8192178,64.5994793 25.3549487,62.5024748 19.0991171,63.0991171 L19.0991171,63.0991171 Z" id="leaf" fill="#7FB317" transform="translate(31.000000, 75.000000) rotate(29.000000) translate(-31.000000, -75.000000) "></path>
                        <path d="M19.2688514,72.2688514 C18.919715,75.9295686 20.1468165,79.7122568 22.950156,82.5155963 C25.7534955,85.3189358 29.5361837,86.5460373 33.1969009,86.1969009 C33.5460373,82.5361837 32.3189358,78.7534955 29.5155963,75.950156 C26.7122568,73.1468165 22.9295686,71.919715 19.2688514,72.2688514 L19.2688514,72.2688514 Z" id="leaf" fill="#79AB16" transform="translate(26.232876, 79.232876) rotate(11.000000) translate(-26.232876, -79.232876) "></path>
                        <path d="M39.2428537,70.2428537 C38.9542233,73.2691618 39.9686658,76.3963031 42.2861814,78.7138186 C44.6036969,81.0313342 47.7308382,82.0457767 50.7571463,81.7571463 C51.0457767,78.7308382 50.0313342,75.6036969 47.7138186,73.2861814 C45.3963031,70.9686658 42.2691618,69.9542233 39.2428537,70.2428537 L39.2428537,70.2428537 Z" id="leaf" fill="#7FB317" transform="translate(45.000000, 76.000000) rotate(91.000000) translate(-45.000000, -76.000000) "></path>
                        <g id="Rectangle-18">
                            <use fill="#5E654F" fill-rule="evenodd" xlink:href="#path-1"></use>
                            <use fill="black" fill-opacity="1" filter="url(#filter-2)" xlink:href="#path-1"></use>
                        </g>
                        <rect id="Rectangle-19" fill="#679015" x="79" y="24" width="2" height="38" rx="1"></rect>
                        <g id="Rectangle-18">
                            <use fill="#F1F1F1" fill-rule="evenodd" xlink:href="#path-3"></use>
                            <use fill="black" fill-opacity="1" filter="url(#filter-4)" xlink:href="#path-3"></use>
                        </g>
                        <g id="Group-8" transform="translate(77.484810, 45.122338) rotate(29.000000) translate(-77.484810, -45.122338) translate(70.484810, 40.122338)">
                            <path d="M7.02477928,0.0247792842 C6.8756187,1.58873719 7.39986983,3.20480445 8.59753269,4.40246731 C9.79519555,5.60013017 11.4112628,6.1243813 12.9752207,5.97522072 C13.1243813,4.41126281 12.6001302,2.79519555 11.4024673,1.59753269 C10.2048044,0.399869834 8.58873719,-0.124381302 7.02477928,0.0247792842 L7.02477928,0.0247792842 Z" id="leaf" fill="#679015"></path>
                            <path d="M0.0831736991,1.22689537 C-0.115707083,3.31217257 0.583294432,5.46692892 2.18017824,7.06381273 C3.77706206,8.66069654 5.93181841,9.35969806 8.01709561,9.16081728 C8.21597639,7.07554007 7.51697488,4.92078372 5.92009106,3.32389991 C4.32320725,1.7270161 2.1684509,1.02801459 0.0831736991,1.22689537 L0.0831736991,1.22689537 Z" id="leaf" fill="#72A115" transform="translate(4.050135, 5.193856) scale(-1, 1) translate(-4.050135, -5.193856) "></path>
                        </g>
                        <g id="Group-8" transform="translate(76.631829, 52.836542) scale(-1, 1) rotate(29.000000) translate(-76.631829, -52.836542) translate(71.131829, 49.336542)">
                            <path d="M0.0206470576,1.68712438 C-0.10363931,2.99027457 0.333187006,4.3368443 1.331126,5.3347833 C2.329065,6.33272229 3.67563473,6.76954861 4.97878492,6.64526224 C5.10307129,5.34211205 4.66624497,3.99554233 3.66830597,2.99760333 C2.67036697,1.99966433 1.32379725,1.56283802 0.0206470576,1.68712438 L0.0206470576,1.68712438 Z" id="leaf" fill="#679015"></path>
                            <path d="M4.19372272,0.0275294101 C4.02800757,1.765063 4.61044265,3.5604893 5.94102799,4.89107463 C7.27161332,6.22165996 9.06703962,6.80409505 10.8045732,6.63837989 C10.9702884,4.9008463 10.3878533,3.10542 9.05726794,1.77483467 C7.72668261,0.444249341 5.93125631,-0.138185747 4.19372272,0.0275294101 L4.19372272,0.0275294101 Z" id="leaf" fill="#72A115" transform="translate(7.499148, 3.332955) scale(-1, 1) translate(-7.499148, -3.332955) "></path>
                        </g>
                        <g id="Group-8" transform="translate(81.507242, 27.727622) scale(-1, 1) rotate(-37.000000) translate(-81.507242, -27.727622) translate(76.007242, 24.227622)">
                            <path d="M0.0206470576,1.68712438 C-0.10363931,2.99027457 0.333187006,4.3368443 1.331126,5.3347833 C2.329065,6.33272229 3.67563473,6.76954861 4.97878492,6.64526224 C5.10307129,5.34211205 4.66624497,3.99554233 3.66830597,2.99760333 C2.67036697,1.99966433 1.32379725,1.56283802 0.0206470576,1.68712438 L0.0206470576,1.68712438 Z" id="leaf" fill="#679015"></path>
                            <path d="M4.19372272,0.0275294101 C4.02800757,1.765063 4.61044265,3.5604893 5.94102799,4.89107463 C7.27161332,6.22165996 9.06703962,6.80409505 10.8045732,6.63837989 C10.9702884,4.9008463 10.3878533,3.10542 9.05726794,1.77483467 C7.72668261,0.444249341 5.93125631,-0.138185747 4.19372272,0.0275294101 L4.19372272,0.0275294101 Z" id="leaf" fill="#72A115" transform="translate(7.499148, 3.332955) scale(-1, 1) translate(-7.499148, -3.332955) "></path>
                        </g>
                        <g id="Group-8" transform="translate(75.447109, 36.249808) scale(-1, 1) rotate(41.000000) translate(-75.447109, -36.249808) translate(69.947109, 32.749808)">
                            <path d="M0.0206470576,1.68712438 C-0.10363931,2.99027457 0.333187006,4.3368443 1.331126,5.3347833 C2.329065,6.33272229 3.67563473,6.76954861 4.97878492,6.64526224 C5.10307129,5.34211205 4.66624497,3.99554233 3.66830597,2.99760333 C2.67036697,1.99966433 1.32379725,1.56283802 0.0206470576,1.68712438 L0.0206470576,1.68712438 Z" id="leaf" fill="#679015"></path>
                            <path d="M4.19372272,0.0275294101 C4.02800757,1.765063 4.61044265,3.5604893 5.94102799,4.89107463 C7.27161332,6.22165996 9.06703962,6.80409505 10.8045732,6.63837989 C10.9702884,4.9008463 10.3878533,3.10542 9.05726794,1.77483467 C7.72668261,0.444249341 5.93125631,-0.138185747 4.19372272,0.0275294101 L4.19372272,0.0275294101 Z" id="leaf" fill="#72A115" transform="translate(7.499148, 3.332955) scale(-1, 1) translate(-7.499148, -3.332955) "></path>
                        </g>
                        <g id="Group-8" transform="translate(83.459742, 39.580217) scale(-1, 1) rotate(29.000000) translate(-83.459742, -39.580217) translate(78.459742, 32.080217)">
                            <path d="M2.97768697,7.70939992 C2.82852639,9.27335783 3.35277752,10.8894251 4.55044038,12.0870879 C5.74810324,13.2847508 7.3641705,13.8090019 8.92812841,13.6598414 C9.07728899,12.0958835 8.55303786,10.4798162 7.355375,9.28215333 C6.15771214,8.08449047 4.54164487,7.56023934 2.97768697,7.70939992 L2.97768697,7.70939992 Z" id="leaf" fill="#679015" transform="translate(5.952908, 10.684621) rotate(-23.000000) translate(-5.952908, -10.684621) "></path>
                            <path d="M0.608990944,0.65994051 C0.410110162,2.74521771 1.10911168,4.89997406 2.70599549,6.49685787 C4.3028793,8.09374169 6.45763565,8.7927432 8.54291285,8.59386242 C8.74179364,6.50858522 8.04279212,4.35382887 6.44590831,2.75694506 C4.8490245,1.16006124 2.69426815,0.461059728 0.608990944,0.65994051 L0.608990944,0.65994051 Z" id="leaf" fill="#72A115"></path>
                        </g>
                        <g id="Group-8" transform="translate(81.779641, 47.831636) rotate(29.000000) translate(-81.779641, -47.831636) translate(75.779641, 43.831636)">
                            <path d="M0.393745593,2.26307628 C0.269459226,3.56622647 0.706285541,4.9127962 1.70422454,5.91073519 C2.70216354,6.90867419 4.04873326,7.34550051 5.35188345,7.22121414 C5.47616982,5.91806395 5.03934351,4.57149423 4.04140451,3.57355523 C3.04346551,2.57561623 1.69689578,2.13878991 0.393745593,2.26307628 L0.393745593,2.26307628 Z" id="leaf" fill="#679015"></path>
                            <path d="M4.56682126,0.603481309 C4.4011061,2.3410149 4.98354119,4.13644119 6.31412652,5.46702653 C7.64471185,6.79761186 9.44013815,7.38004695 11.1776717,7.21433179 C11.3433869,5.4767982 10.7609518,3.6813719 9.43036648,2.35078657 C8.09978114,1.02020124 6.30435485,0.437766152 4.56682126,0.603481309 L4.56682126,0.603481309 Z" id="leaf" fill="#72A115" transform="translate(7.872246, 3.908907) scale(-1, 1) translate(-7.872246, -3.908907) "></path>
                        </g>
                        <g id="Group-8" transform="translate(81.507242, 22.727622) rotate(-37.000000) translate(-81.507242, -22.727622) translate(76.007242, 19.227622)">
                            <path d="M0.0206470576,1.68712438 C-0.10363931,2.99027457 0.333187006,4.3368443 1.331126,5.3347833 C2.329065,6.33272229 3.67563473,6.76954861 4.97878492,6.64526224 C5.10307129,5.34211205 4.66624497,3.99554233 3.66830597,2.99760333 C2.67036697,1.99966433 1.32379725,1.56283802 0.0206470576,1.68712438 L0.0206470576,1.68712438 Z" id="leaf" fill="#679015"></path>
                            <path d="M4.19372272,0.0275294101 C4.02800757,1.765063 4.61044265,3.5604893 5.94102799,4.89107463 C7.27161332,6.22165996 9.06703962,6.80409505 10.8045732,6.63837989 C10.9702884,4.9008463 10.3878533,3.10542 9.05726794,1.77483467 C7.72668261,0.444249341 5.93125631,-0.138185747 4.19372272,0.0275294101 L4.19372272,0.0275294101 Z" id="leaf" fill="#72A115" transform="translate(7.499148, 3.332955) scale(-1, 1) translate(-7.499148, -3.332955) "></path>
                        </g>
                        <g id="Group-8" transform="translate(76.956528, 32.561926) rotate(41.000000) translate(-76.956528, -32.561926) translate(73.456528, 29.061926)" fill="#72A115">
                            <path d="M0.193722723,0.0275294101 C0.0280075661,1.765063 0.610442654,3.5604893 1.94102799,4.89107463 C3.27161332,6.22165996 5.06703962,6.80409505 6.8045732,6.63837989 C6.97028836,4.9008463 6.38785327,3.10542 5.05726794,1.77483467 C3.72668261,0.444249341 1.93125631,-0.138185747 0.193722723,0.0275294101 L0.193722723,0.0275294101 Z" id="leaf" transform="translate(3.499148, 3.332955) scale(-1, 1) translate(-3.499148, -3.332955) "></path>
                        </g>
                        <g id="Group-8" transform="translate(83.800663, 54.862181) scale(-1, 1) rotate(-15.000000) translate(-83.800663, -54.862181) translate(80.800663, 51.862181)" fill="#679015">
                            <path d="M0.761828012,0.986572884 C0.637541645,2.28972307 1.07436796,3.6362928 2.07230696,4.6342318 C3.07024596,5.6321708 4.41681568,6.06899711 5.71996587,5.94471074 C5.84425224,4.64156055 5.40742592,3.29499083 4.40948693,2.29705183 C3.41154793,1.29911283 2.0649782,0.862286516 0.761828012,0.986572884 L0.761828012,0.986572884 Z" id="leaf"></path>
                        </g>
                        <g id="grass" transform="translate(41.000000, 79.000000)">
                            <g id="Group-7" transform="translate(6.000000, 0.000000)">
                                <path d="M7.02477928,12.0247793 C6.8756187,13.5887372 7.39986983,15.2048044 8.59753269,16.4024673 C9.79519555,17.6001302 11.4112628,18.1243813 12.9752207,17.9752207 C13.1243813,16.4112628 12.6001302,14.7951956 11.4024673,13.5975327 C10.2048044,12.3998698 8.58873719,11.8756187 7.02477928,12.0247793 L7.02477928,12.0247793 Z" id="leaf" fill="#88C11A"></path>
                                <path d="M12.033039,10.033039 C11.8341583,12.1183162 12.5331598,14.2730726 14.1300436,15.8699564 C15.7269274,17.4668402 17.8816838,18.1658417 19.966961,17.966961 C20.1658417,15.8816838 19.4668402,13.7269274 17.8699564,12.1300436 C16.2730726,10.5331598 14.1183162,9.83415826 12.033039,10.033039 L12.033039,10.033039 Z" id="leaf" fill="#72A115" transform="translate(16.000000, 14.000000) scale(-1, 1) translate(-16.000000, -14.000000) "></path>
                                <g transform="translate(7.000000, 3.000000)" id="leaf">
                                    <path d="M0.0454286876,0.0454286876 C-0.228032388,2.91268484 0.733094695,5.87547482 2.92880994,8.07119006 C5.12452518,10.2669053 8.08731516,11.2280324 10.9545713,10.9545713 C11.2280324,8.08731516 10.2669053,5.12452518 8.07119006,2.92880994 C5.87547482,0.733094695 2.91268484,-0.228032388 0.0454286876,0.0454286876 L0.0454286876,0.0454286876 Z" fill="#88C11A"></path>
                                    <path d="M4.05781833,0.0578183297 C3.70977696,3.70705343 4.93302961,7.47787704 7.72757628,10.2724237 C10.522123,13.0669704 14.2929466,14.290223 17.9421817,13.9421817 C18.290223,10.2929466 17.0669704,6.52212296 14.2724237,3.72757628 C11.477877,0.933029612 7.70705343,-0.290223039 4.05781833,0.0578183297 L4.05781833,0.0578183297 Z" fill="#72A115" transform="translate(11.000000, 7.000000) scale(-1, 1) translate(-11.000000, -7.000000) "></path>
                                </g>
                                <g transform="translate(14.000000, 4.000000) scale(-1, 1) translate(-14.000000, -4.000000) translate(9.000000, 0.000000)" id="leaf" fill="#7FB317">
                                    <path d="M0.0289091649,0.0289091649 C-0.145111519,1.85352672 0.466514806,3.73893852 1.86378814,5.13621186 C3.26106148,6.53348519 5.14647328,7.14511152 6.97109084,6.97109084 C7.14511152,5.14647328 6.53348519,3.26106148 5.13621186,1.86378814 C3.73893852,0.466514806 1.85352672,-0.145111519 0.0289091649,0.0289091649 L0.0289091649,0.0289091649 Z"></path>
                                    <path d="M3.02890916,1.02890916 C2.85488848,2.85352672 3.46651481,4.73893852 4.86378814,6.13621186 C6.26106148,7.53348519 8.14647328,8.14511152 9.97109084,7.97109084 C10.1451115,6.14647328 9.53348519,4.26106148 8.13621186,2.86378814 C6.73893852,1.46651481 4.85352672,0.854888481 3.02890916,1.02890916 L3.02890916,1.02890916 Z" transform="translate(6.500000, 4.500000) scale(-1, 1) translate(-6.500000, -4.500000) "></path>
                                </g>
                                <g transform="translate(7.500000, 8.500000) scale(-1, 1) translate(-7.500000, -8.500000) translate(0.000000, 4.000000)" id="leaf">
                                    <path d="M0.0289091649,2.02890916 C-0.145111519,3.85352672 0.466514806,5.73893852 1.86378814,7.13621186 C3.26106148,8.53348519 5.14647328,9.14511152 6.97109084,8.97109084 C7.14511152,7.14647328 6.53348519,5.26106148 5.13621186,3.86378814 C3.73893852,2.46651481 1.85352672,1.85488848 0.0289091649,2.02890916 L0.0289091649,2.02890916 Z" fill="#88C11A"></path>
                                    <path d="M6.03716893,0.0371689262 C5.81342805,2.38310578 6.59980475,4.80720667 8.39629904,6.60370096 C10.1927933,8.40019525 12.6168942,9.18657195 14.9628311,8.96283107 C15.186572,6.61689422 14.4001952,4.19279333 12.603701,2.39629904 C10.8072067,0.599804751 8.38310578,-0.186571954 6.03716893,0.0371689262 L6.03716893,0.0371689262 Z" fill="#72A115" transform="translate(10.500000, 4.500000) scale(-1, 1) translate(-10.500000, -4.500000) "></path>
                                </g>
                            </g>
                            <g id="Group-7" transform="translate(26.500000, 14.500000) scale(-1, 1) translate(-26.500000, -14.500000) translate(17.000000, 8.000000)">
                                <path d="M0.0412988069,0.0412988069 C-0.207302171,2.64789531 0.666449723,5.34134075 2.66255449,7.33744551 C4.65865925,9.33355028 7.35210469,10.2073022 9.95870119,9.95870119 C10.2073022,7.35210469 9.33355028,4.65865925 7.33744551,2.66255449 C5.34134075,0.666449723 2.64789531,-0.207302171 0.0412988069,0.0412988069 L0.0412988069,0.0412988069 Z" id="leaf" fill="#88C11A"></path>
                                <path d="M6.05368845,0.053688449 C5.73050718,3.4422639 6.86638464,6.94374297 9.46132083,9.53867917 C12.056257,12.1336154 15.5577361,13.2694928 18.9463116,12.9463116 C19.2694928,9.5577361 18.1336154,6.05625703 15.5386792,3.46132083 C12.943743,0.86638464 9.4422639,-0.269492822 6.05368845,0.053688449 L6.05368845,0.053688449 Z" id="leaf" fill="#7FB317" transform="translate(12.500000, 6.500000) scale(-1, 1) translate(-12.500000, -6.500000) "></path>
                            </g>
                            <g id="Group-7" transform="translate(0.000000, 4.000000)">
                                <path d="M0.0454286876,3.04542869 C-0.228032388,5.91268484 0.733094695,8.87547482 2.92880994,11.0711901 C5.12452518,13.2669053 8.08731516,14.2280324 10.9545713,13.9545713 C11.2280324,11.0873152 10.2669053,8.12452518 8.07119006,5.92880994 C5.87547482,3.7330947 2.91268484,2.77196761 0.0454286876,3.04542869 L0.0454286876,3.04542869 Z" id="leaf" fill="#81B518"></path>
                                <path d="M6.03716893,6.03716893 C5.81342805,8.38310578 6.59980475,10.8072067 8.39629904,12.603701 C10.1927933,14.4001952 12.6168942,15.186572 14.9628311,14.9628311 C15.186572,12.6168942 14.4001952,10.1927933 12.603701,8.39629904 C10.8072067,6.59980475 8.38310578,5.81342805 6.03716893,6.03716893 L6.03716893,6.03716893 Z" id="leaf" fill="#72A115"></path>
                                <path d="M9.05781833,0.0578183297 C8.70977696,3.70705343 9.93302961,7.47787704 12.7275763,10.2724237 C15.522123,13.0669704 19.2929466,14.290223 22.9421817,13.9421817 C23.290223,10.2929466 22.0669704,6.52212296 19.2724237,3.72757628 C16.477877,0.933029612 12.7070534,-0.290223039 9.05781833,0.0578183297 L9.05781833,0.0578183297 Z" id="leaf" fill="#88C11A" transform="translate(16.000000, 7.000000) scale(-1, 1) translate(-16.000000, -7.000000) "></path>
                                <path d="M12.0412988,7.04129881 C11.7926978,9.64789531 12.6664497,12.3413407 14.6625545,14.3374455 C16.6586593,16.3335503 19.3521047,17.2073022 21.9587012,16.9587012 C22.2073022,14.3521047 21.3335503,11.6586593 19.3374455,9.66255449 C17.3413407,7.66644972 14.6478953,6.79269783 12.0412988,7.04129881 L12.0412988,7.04129881 Z" id="leaf" fill="#79AB16"></path>
                            </g>
                        </g>
                        <g id="Rectangle-18">
                            <use fill="#FFFFFF" fill-rule="evenodd" xlink:href="#path-5"></use>
                            <use fill="black" fill-opacity="1" filter="url(#filter-6)" xlink:href="#path-5"></use>
                        </g>
                    </g>
                </g>
            </g>
        </g>
    </g>
</svg>