<?xml version="1.0" encoding="UTF-8"?>
<svg width="22px" height="22px" viewBox="0 0 22 22" version="1.1" xmlns="http://www.w3.org/2000/svg" xmlns:xlink="http://www.w3.org/1999/xlink">
    <!-- Generator: Sketch 45.2 (43514) - http://www.bohemiancoding.com/sketch -->
    <title>star</title>
    <desc>Created with Sketch.</desc>
    <defs></defs>
    <g id="Page-1" stroke="none" stroke-width="1" fill="none" fill-rule="evenodd">
        <g id="result" transform="translate(-836.000000, -292.000000)" fill="#FFFFFF">
            <g id="actions" transform="translate(428.000000, 282.000000)">
                <g id="cta" transform="translate(396.000000, 0.000000)">
                    <g id="star" transform="translate(10.000000, 9.000000)">
                        <path d="M13,19.2857143 L8.04628727,21.8614163 L8.04628727,21.8614163 C7.31127892,22.2435867 6.40562659,21.957555 6.02345617,21.2225467 C5.87191033,20.9310865 5.82023467,20.5979362 5.87636583,20.2742627 L6.81813264,14.8436807 L2.84404814,11.0124746 L2.84404814,11.0124746 C2.2476386,10.4375075 2.23025607,9.48791916 2.80522316,8.89150962 C3.03670485,8.65139521 3.3416098,8.49527753 3.67174277,8.44783356 L9.17939586,7.65631932 L11.6578298,2.68964881 L11.6578298,2.68964881 C12.0277284,1.9483887 12.9285005,1.64734067 13.6697606,2.01723923 C13.9608916,2.16251742 14.196892,2.39851783 14.3421702,2.68964881 L16.8206041,7.65631932 L22.3282572,8.44783356 L22.3282572,8.44783356 C23.1482599,8.56567754 23.7174719,9.32595242 23.5996279,10.145955 C23.552184,10.476088 23.3960663,10.780993 23.1559519,11.0124746 L19.1818674,14.8436807 L20.1236342,20.2742627 L20.1236342,20.2742627 C20.2651865,21.0905068 19.7182408,21.8669543 18.9019967,22.0085066 C18.5783233,22.0646378 18.2451729,22.0129621 17.9537127,21.8614163 L13,19.2857143 Z" id="start"></path>
                    </g>
                </g>
            </g>
        </g>
    </g>
</svg>